<svg width="1345" height="210" viewBox="0 0 1345 210" fill="none" xmlns="http://www.w3.org/2000/svg">
<g clip-path="url(#clip0_9306_1109)">
<mask id="mask0_9306_1109" style="mask-type:luminance" maskUnits="userSpaceOnUse" x="0" y="0" width="1345" height="210">
<path d="M1344.13 0H0V209.087H1344.13V0Z" fill="white"/>
</mask>
<g mask="url(#mask0_9306_1109)">
<path d="M0 4.27637H32.7006V205.072H0V4.27637Z" fill="black"/>
<path d="M202.854 4.27637H235.554V205.072H172.132L88.3616 10.6106H85.5113V205.151H52.8107V4.27637H116.47L199.924 198.817H202.774V4.27637H202.854Z" fill="black"/>
<path d="M579.269 26.1288C569.134 26.1288 559.791 28.0291 551.161 31.8296C542.53 35.6302 535.167 41.0143 528.912 47.9028C522.657 54.7913 517.827 63.0258 514.264 72.6856C510.701 82.3451 508.959 93.034 508.959 104.673C508.959 116.313 510.78 127.002 514.422 136.661C518.064 146.321 523.052 154.556 529.466 161.444C535.88 168.333 543.402 173.717 552.111 177.518C560.821 181.318 570.243 183.218 580.378 183.218C587.108 183.218 593.838 182.426 600.568 180.764C607.377 179.18 613.633 176.725 619.492 173.479C625.351 170.233 630.577 166.274 635.169 161.603C639.761 156.931 643.087 151.389 645.225 145.133H673.65C667.316 167.937 656.468 184.327 640.949 194.382C625.43 204.438 605.24 209.426 580.378 209.426C564.146 209.426 549.498 206.971 536.592 201.983C523.686 196.995 512.759 189.949 503.733 180.764C494.707 171.579 487.818 160.574 483.068 147.667C478.317 134.761 475.862 120.43 475.862 104.753C475.862 89.0755 478.238 74.5066 482.909 61.6797C487.581 48.8529 494.39 37.8471 503.258 28.6625C512.126 19.4778 522.973 12.431 535.642 7.44275C548.39 2.45452 562.879 0 579.111 0C603.973 0 624.321 4.98822 640.237 15.0439C656.151 25.0995 667.236 41.4893 673.491 64.2135H645.067C642.216 57.8792 638.415 52.4159 633.744 47.7444C629.072 43.0729 623.767 39.114 617.829 35.8677C611.89 32.6214 605.636 30.1669 599.064 28.5833C592.492 26.9998 585.841 26.1288 579.111 26.1288H579.269Z" fill="black"/>
<path d="M791.543 0C807.777 0 822.503 2.45452 835.563 7.44275C848.714 12.431 859.877 19.4778 869.137 28.6625C878.404 37.8471 885.61 48.8529 890.673 61.6797C895.743 74.5066 898.275 88.838 898.275 104.753C898.275 120.668 895.743 134.761 890.673 147.667C885.61 160.574 878.404 171.658 869.137 180.764C859.877 189.949 848.714 196.995 835.563 201.983C822.503 206.971 807.777 209.426 791.543 209.426C775.309 209.426 760.905 206.971 747.762 201.983C734.615 196.995 723.45 189.949 714.187 180.764C704.923 171.579 697.718 160.574 692.65 147.667C687.583 134.761 685.049 120.43 685.049 104.753C685.049 89.0755 687.583 74.5066 692.65 61.6797C697.718 48.8529 704.923 37.8471 714.187 28.6625C723.45 19.4778 734.615 12.431 747.762 7.44275C760.822 2.45452 775.473 0 791.543 0ZM791.543 185.356C801.676 185.356 811.257 183.614 820.367 180.21C829.47 176.805 837.468 171.658 844.353 164.849C851.245 158.04 856.711 149.646 860.826 139.591C864.94 129.535 867.001 117.896 867.001 104.753C867.001 91.6092 864.94 79.9698 860.826 69.9143C856.711 59.8587 851.245 51.4658 844.353 44.6565C837.468 37.8471 829.47 32.7797 820.367 29.2959C811.257 25.8121 801.676 24.1493 791.543 24.1493C781.41 24.1493 772.068 25.8912 762.958 29.2959C753.855 32.7006 745.859 37.8471 738.97 44.6565C732.081 51.4658 726.618 59.8587 722.501 69.9143C718.383 79.9698 716.325 91.6092 716.325 104.753C716.325 117.896 718.383 129.535 722.501 139.591C726.618 149.646 732.081 158.04 738.97 164.849C745.859 171.658 753.855 176.725 762.958 180.21C772.068 183.693 781.567 185.356 791.543 185.356Z" fill="black"/>
<path d="M949.665 14.332H946.813V205.151H914.113V4.27637H977.773L1032.56 200.243H1035.41L1090.52 4.27637H1153.94V205.072H1121.24V14.332H1118.39L1066.45 205.151H1001.92L949.74 14.332H949.665Z" fill="black"/>
<path d="M1253.79 207.765C1227.42 207.765 1206.99 202.142 1192.66 190.979C1178.33 179.814 1171.13 164.058 1171.13 143.789H1200.11C1200.11 148.381 1201.37 152.973 1203.83 157.565C1206.28 162.158 1209.84 166.275 1214.44 169.917C1219.03 173.56 1224.65 176.489 1231.38 178.785C1238.11 181.081 1245.55 182.19 1253.79 182.19C1258.54 182.19 1264.24 181.794 1270.73 181.081C1277.22 180.29 1283.48 178.785 1289.5 176.489C1295.52 174.193 1300.66 170.868 1304.86 166.592C1309.06 162.316 1311.19 156.615 1311.19 149.489C1311.19 143.947 1309.61 139.434 1306.36 136.029C1303.12 132.624 1298.68 129.774 1293.14 127.557C1287.59 125.34 1281.26 123.677 1274.06 122.41C1266.85 121.144 1259.41 119.956 1251.57 118.847C1241.99 117.343 1232.41 115.443 1222.91 113.226C1213.33 111.009 1204.7 107.762 1197.1 103.487C1189.41 99.2112 1183.24 93.3523 1178.49 85.9887C1173.74 78.6251 1171.28 69.1235 1171.28 57.4051C1171.28 46.7161 1173.82 37.7689 1178.88 30.5637C1183.95 23.3585 1190.76 17.6577 1199.23 13.3821C1207.71 9.10649 1217.36 6.01853 1228.21 4.19743C1238.98 2.37634 1250.15 1.50537 1261.62 1.50537C1287.83 1.50537 1308.18 7.12702 1322.59 18.2912C1337.01 29.4553 1344.13 45.2117 1343.97 65.4813H1315.31C1315.31 60.889 1314.04 56.2967 1311.43 51.7043C1308.82 47.112 1305.25 42.9947 1300.66 39.3525C1296.07 35.7103 1290.45 32.7807 1283.88 30.4846C1277.3 28.1884 1269.86 27.0799 1261.62 27.0799C1256.87 27.0799 1251.18 27.4758 1244.52 28.1884C1237.95 28.9802 1231.62 30.5637 1225.6 32.9391C1219.58 35.3144 1214.44 38.6399 1210.24 42.9947C1206.04 47.2704 1203.91 52.9712 1203.91 60.0972C1203.91 65.4813 1205.33 69.9153 1208.18 73.3991C1211.03 76.9621 1214.99 79.8916 1219.98 82.1878C1224.97 84.484 1230.67 86.3845 1237.16 87.9676C1243.66 89.4723 1250.46 90.8186 1257.51 92.0059C1267.48 93.7481 1277.54 95.5694 1287.76 97.6274C1297.97 99.607 1307.23 102.774 1315.54 106.971C1323.86 111.167 1330.67 116.789 1336.05 123.757C1341.44 130.724 1344.13 140.146 1344.13 152.023C1344.13 162.712 1341.6 171.659 1336.53 178.864C1331.46 186.07 1324.65 191.77 1316.18 196.046C1307.63 200.322 1297.97 203.41 1287.2 205.231C1276.36 207.052 1265.27 207.923 1253.79 207.923V207.765Z" fill="black"/>
<path d="M435.559 34.6008C428.512 26.8414 420.357 20.0321 411.252 14.648C410.935 14.4104 410.539 14.1729 410.222 14.0145C409.747 13.6978 409.193 13.4603 408.718 13.2227C408.718 13.2227 408.56 13.1436 408.48 13.0644C399.77 8.23451 390.348 4.59233 380.292 2.37535C373.087 0.870959 365.565 0 357.885 0C317.425 0 282.191 23.12 264.772 56.8499C261.367 63.4217 258.675 70.3102 256.695 77.5944C254.875 84.4831 253.687 91.6092 253.291 98.9728C253.212 100.873 253.133 102.773 253.133 104.673C253.133 131.832 263.505 156.614 280.528 175.222C287.733 183.139 296.126 189.949 305.469 195.333C305.548 195.333 305.628 195.412 305.707 195.491C314.812 200.717 324.71 204.596 335.319 206.971C342.525 208.555 350.126 209.426 357.806 209.426C398.504 209.426 433.817 186.148 451.157 152.18C457.65 139.512 461.609 125.339 462.401 110.374C462.48 108.474 462.559 106.574 462.559 104.673C462.559 77.7527 452.345 53.1285 435.48 34.5217L435.559 34.6008ZM394.466 26.2871C396.999 26.2871 399.296 26.7622 401.275 27.7915C401.829 28.0291 402.383 28.3458 402.858 28.7417C409.589 33.334 412.676 44.894 411.252 60.7297C410.777 65.9554 409.826 71.4187 408.48 77.1195C407.767 80.2864 406.817 83.454 405.788 86.7001C402.779 85.5121 399.691 84.3247 396.683 83.2166C385.994 79.3365 375.383 76.0905 366.278 73.6357C360.656 72.1313 355.035 70.7061 349.492 69.5184C346.008 73.8732 342.604 78.7033 339.199 84.0081C346.326 85.4329 354.006 87.2542 362.003 89.3921C372.691 92.2424 382.351 95.3302 390.982 98.4187C394.149 99.5269 397.237 100.715 400.087 101.902C398.821 104.832 397.474 107.84 396.049 110.85C394.782 113.383 393.516 115.996 392.09 118.53C391.299 120.034 390.427 121.618 389.477 123.122C388.607 124.626 387.735 126.052 386.865 127.556C383.539 127.002 380.055 126.368 376.492 125.656C369.366 124.23 361.765 122.409 353.61 120.271C342.92 117.421 333.261 114.333 324.631 111.245C321.464 110.057 318.375 108.949 315.525 107.761C316.792 104.832 318.138 101.823 319.642 98.8145C320.83 96.2808 322.176 93.7471 323.601 91.1343C324.393 89.6296 325.264 88.0457 326.214 86.5418C327.085 85.0371 327.956 83.6124 328.826 82.1077C332.073 76.8028 335.399 71.8938 338.804 67.3014C341.02 64.2926 343.316 61.363 345.612 58.671C363.348 37.6888 381.955 26.3663 394.386 26.3663L394.466 26.2871ZM286.387 52.7326C301.51 31.988 325.422 18.0526 352.58 16.469C352.58 16.469 367.387 16.5483 356.539 25.7329C346.563 33.2548 336.587 43.2313 327.323 55.3455C325.105 58.1959 322.968 61.2047 320.83 64.2927C317.109 63.8176 313.466 63.4217 309.903 63.105C305.232 62.7091 300.718 62.4716 296.443 62.3924C294.939 62.3924 293.434 62.3924 292.009 62.3924C279.816 62.0757 286.308 52.7326 286.308 52.7326H286.387ZM292.247 125.973C290.663 131.911 289.555 137.69 288.921 143.233C287.1 156.693 278.944 144.342 278.944 144.342C274.194 134.998 271.106 124.626 269.998 113.7C269.998 113.7 269.76 102.852 279.657 108.237C281.715 109.503 283.933 110.691 286.15 111.958C289 113.463 291.93 114.966 295.018 116.392C293.909 119.638 293.038 122.805 292.247 125.973ZM291.93 96.6766C280.607 90.5003 274.114 85.1163 272.769 81.8702C275.777 79.574 285.516 78.0693 300.639 78.7824C303.965 78.9408 307.528 79.1782 311.407 79.574C309.587 82.7409 307.924 85.8294 306.419 88.9963C305.865 90.1045 305.311 91.1343 304.836 92.2424C303.331 95.251 301.986 98.1812 300.798 101.19C297.631 99.6852 294.701 98.1812 292.088 96.6766H291.93ZM430.571 154.951C430.175 155.506 429.858 155.981 429.462 156.535C414.339 177.359 390.348 191.373 363.111 192.957C363.111 192.957 348.701 192.799 359.865 183.139C369.604 175.617 379.343 165.799 388.448 154.001C381.955 153.052 375.779 151.943 370.158 150.755C348.463 176.409 325.66 187.652 314.021 181.476C313.704 181.318 313.387 181.08 313.07 180.922C303.965 174.983 301.352 156.456 307.211 132.386C307.924 129.298 308.874 126.131 309.903 122.885C312.991 124.072 316 125.259 319.088 126.368C329.777 130.248 340.308 133.495 349.492 135.949C354.639 137.295 360.34 138.72 366.358 139.987C369.841 140.7 373.405 141.491 376.967 142.125C382.826 143.233 388.844 144.262 394.861 145.054C398.583 145.53 402.225 146.005 405.788 146.242C411.172 146.717 416.477 146.954 421.465 146.954C422.494 146.954 423.445 146.954 424.395 146.875C433.896 146.875 431.996 152.18 430.413 154.951H430.571ZM415.131 130.644C411.806 130.486 408.243 130.248 404.442 129.852C406.184 126.764 407.926 123.597 409.43 120.43C409.984 119.321 410.539 118.292 411.014 117.184C412.518 114.254 413.785 111.245 415.052 108.237C418.219 109.741 421.149 111.245 423.762 112.67C435.084 118.846 441.577 124.23 442.923 127.477C439.914 129.773 430.175 131.277 415.052 130.565L415.131 130.644ZM436.668 101.427C434.45 100.081 432.075 98.7353 429.621 97.4681C426.77 95.9642 423.841 94.4595 420.832 93.034C421.94 89.867 422.811 86.621 423.603 83.5332C425.186 77.5944 426.295 71.8146 427.008 66.193C429.066 50.1989 436.905 65.322 436.905 65.322C441.656 74.665 444.664 84.8788 445.773 95.8059C445.773 95.8059 446.565 106.97 436.588 101.506L436.668 101.427Z" fill="black"/>
</g>
</g>
<defs>
<clipPath id="clip0_9306_1109">
<rect width="1344.13" height="209.087" fill="white"/>
</clipPath>
</defs>
</svg>
