<svg width="76" height="76" viewBox="0 0 76 76" fill="none" xmlns="http://www.w3.org/2000/svg">
<g clip-path="url(#clip0_9306_1103)">
<path d="M66.1992 12.5374C63.65 9.70383 60.6892 7.26599 57.38 5.31889C57.2692 5.22391 57.1267 5.16061 57.0158 5.08145C56.8417 4.97064 56.6517 4.87566 56.4617 4.78068C56.4458 4.78068 56.3983 4.74902 56.3825 4.73319C53.2317 2.97605 49.7958 1.66216 46.17 0.870656C43.5417 0.300775 40.8183 0 38.0158 0C23.3225 0 10.545 8.38994 4.2275 20.6266C2.9925 23.001 2.01083 25.518 1.29833 28.1616C0.6175 30.6628 0.205833 33.2589 0.0633333 35.9184C0.0316667 36.599 0 37.2956 0 37.9921C0 47.8384 3.76833 56.8298 9.94331 63.5893C12.5558 66.4703 15.6117 68.9398 19 70.9028C19.0317 70.9186 19.0633 70.9344 19.095 70.9661C22.3883 72.8657 25.9983 74.2745 29.83 75.1135C32.4583 75.6993 35.1817 76 37.9842 76C52.7408 76 65.55 67.5467 71.8517 55.231C74.2108 50.6244 75.6517 45.4955 75.9367 40.0658C75.9683 39.3851 76 38.6886 76 37.9921C76 28.225 72.2792 19.281 66.1833 12.5532L66.1992 12.5374ZM51.2842 9.52972C52.2025 9.52972 53.0417 9.70383 53.77 10.0679C53.9758 10.1629 54.1658 10.2737 54.3558 10.4004C56.81 12.0625 57.9183 16.2575 57.4117 22.0037C57.2533 23.9034 56.905 25.8979 56.3983 27.9558C56.1292 29.0956 55.7967 30.2512 55.4167 31.4227C54.3242 30.9794 53.2 30.552 52.1075 30.1562C48.2283 28.7474 44.3808 27.5601 41.0717 26.6736C39.0292 26.1354 36.9867 25.6289 34.9758 25.1856C33.725 26.7686 32.4742 28.5257 31.255 30.4411C33.8517 30.9635 36.6067 31.6126 39.5358 32.3882C43.415 33.4331 46.93 34.5412 50.065 35.6809C51.2208 36.0925 52.3292 36.5041 53.3742 36.9315C52.9308 38.0079 52.4242 39.0844 51.9017 40.1766C51.4583 41.0948 50.9833 42.0288 50.4767 42.9627C50.1758 43.5168 49.8592 44.0866 49.5425 44.6407C49.2258 45.1789 48.9092 45.7171 48.5767 46.2553C47.3733 46.0654 46.1225 45.8279 44.8242 45.5747C42.2275 45.0523 39.4725 44.4032 36.5275 43.6276C32.6483 42.5828 29.1333 41.4747 25.9983 40.3508C24.8425 39.9233 23.7342 39.5118 22.6892 39.0844C23.1325 38.0238 23.6392 36.9314 24.1775 35.8392C24.6208 34.9211 25.0958 33.9871 25.6025 33.0532C25.9033 32.499 26.22 31.9292 26.5367 31.3752C26.8533 30.8369 27.17 30.2987 27.5025 29.7605C28.6742 27.845 29.8775 26.0562 31.1283 24.4099C31.9358 23.3176 32.7592 22.2729 33.5983 21.2914C40.0425 13.6771 46.7717 9.56133 51.3 9.56133L51.2842 9.52972ZM12.065 19.1385C17.5592 11.6193 26.22 6.55363 36.0842 5.98375C36.0842 5.98375 41.4517 6.01542 37.525 9.35552C33.915 12.0942 30.2892 15.7034 26.9325 20.0883C26.125 21.1331 25.3492 22.2096 24.5733 23.3335C23.2117 23.1593 21.8817 23.0169 20.5992 22.8902C18.8892 22.7478 17.2583 22.6528 15.7225 22.637C15.1683 22.637 14.63 22.637 14.1075 22.637C9.69 22.5103 12.0492 19.1385 12.0492 19.1385H12.065ZM14.1708 45.7013C13.6167 47.8542 13.205 49.9596 12.9517 51.9542C12.2867 56.8298 9.32581 52.3657 9.32581 52.3657C7.61581 48.9781 6.49167 45.2264 6.08 41.2531C6.08 41.2531 6.00083 37.3114 9.57919 39.2743C10.3392 39.7175 11.115 40.1766 11.9383 40.6041C12.9675 41.1581 14.0442 41.6963 15.1525 42.2187C14.7567 43.3901 14.4242 44.5457 14.1392 45.6855L14.1708 45.7013ZM14.0758 35.0635C9.975 32.8315 7.61581 30.8844 7.125 29.713C8.2175 28.8898 11.7483 28.3358 17.2267 28.5891C18.43 28.6524 19.7283 28.7474 21.1375 28.8898C20.4883 30.0296 19.8867 31.1535 19.3167 32.2932C19.1108 32.689 18.9208 33.069 18.7308 33.4647C18.1925 34.557 17.7017 35.6334 17.2583 36.7098C16.1025 36.1558 15.0417 35.6176 14.0917 35.0794L14.0758 35.0635ZM64.3783 56.2125C64.2517 56.4024 64.125 56.5923 63.9825 56.7823C58.5042 64.3332 49.7958 69.4306 39.9158 69.9846C39.9158 69.9846 34.6908 69.9213 38.7442 66.4229C42.275 63.7001 45.8217 60.1383 49.115 55.8484C46.7558 55.5001 44.5075 55.0885 42.4808 54.6769C34.6117 63.9692 26.315 68.0692 22.1192 65.8213C22.0083 65.758 21.8817 65.6946 21.7708 65.6155C18.4775 63.4626 17.5275 56.7507 19.6492 47.9967C19.9183 46.8886 20.235 45.733 20.615 44.5457C21.7233 44.989 22.8317 45.4164 23.9558 45.8121C27.835 47.221 31.6667 48.4083 34.9917 49.2947C36.86 49.7855 38.9342 50.3079 41.1033 50.7669C42.3542 51.0361 43.6525 51.3052 44.9667 51.5426C47.0883 51.9542 49.2892 52.3182 51.4583 52.5874C52.7883 52.7615 54.1183 52.9198 55.4325 53.0306C57.3958 53.2048 59.3117 53.2997 61.1325 53.2997C61.4967 53.2997 61.845 53.2681 62.2092 53.2681C65.6608 53.2839 64.98 55.1993 64.3942 56.1966L64.3783 56.2125ZM58.7892 47.3793C57.5858 47.316 56.2875 47.221 54.8942 47.0785C55.5275 45.9546 56.145 44.8148 56.715 43.6751C56.9208 43.2793 57.1108 42.8994 57.3008 42.5037C57.8392 41.4272 58.3142 40.3508 58.7733 39.2585C59.9133 39.8125 60.9742 40.3508 61.9242 40.8732C66.0408 43.121 68.4 45.0682 68.8908 46.2395C67.7983 47.0627 64.2675 47.6167 58.7733 47.3635L58.7892 47.3793ZM66.6108 36.789C65.8033 36.2983 64.9483 35.8234 64.0617 35.3485C63.0325 34.7944 61.9717 34.2562 60.8633 33.7338C61.2592 32.5782 61.5917 31.4227 61.8767 30.2829C62.4467 28.13 62.8583 26.0246 63.1117 23.9825C63.8558 18.1729 66.7058 23.6818 66.7058 23.6818C68.4158 27.0694 69.54 30.7894 69.92 34.7311C69.92 34.7311 70.205 38.7994 66.595 36.789H66.6108Z" fill="#BBFF00"/>
</g>
<defs>
<clipPath id="clip0_9306_1103">
<rect width="75.02" height="75.02" fill="white"/>
</clipPath>
</defs>
</svg>
