<svg width="195" height="119" viewBox="0 0 195 119" fill="none" xmlns="http://www.w3.org/2000/svg">
<g clip-path="url(#clip0_9306_1108)">
<mask id="mask0_9306_1108" style="mask-type:luminance" maskUnits="userSpaceOnUse" x="0" y="0" width="195" height="119">
<path d="M194.53 0H0V118.436H194.53V0Z" fill="white"/>
</mask>
<g mask="url(#mask0_9306_1108)">
<path d="M194.348 24.6356C194.181 24.0074 193.803 23.0725 192.933 22.2094C193.134 21.1833 193.034 20.3155 192.861 19.6634C192.647 18.8483 192.102 17.6064 190.72 16.6282C190.854 15.7268 190.758 14.9597 190.6 14.3699C190.18 12.7877 188.684 10.0929 183.339 9.81963C183.061 9.80527 182.775 9.80048 182.492 9.80048C176.173 9.80048 168.667 13.3247 166.44 14.4466L164.121 14.8302C162.089 10.7259 159.608 8.27093 156.725 7.51337C156.133 7.3599 155.526 7.2784 154.923 7.2784C153.179 7.2784 151.462 7.93532 149.951 9.17234C146.294 12.1787 146.978 17.6496 151.797 24.3047C150.114 25.1054 148.771 26.4912 147.91 28.294L137.952 32.336L142.594 22.9143C143.158 21.7635 143.043 20.4065 142.293 19.3709C141.652 18.4838 140.615 17.9564 139.52 17.9564C139.358 17.9564 139.19 17.966 139.023 17.9948L121.263 20.6032L118.251 2.85761C118.037 1.59179 117.148 0.560903 115.923 0.162935C115.584 0.0526547 115.23 -0.00488281 114.871 -0.00488281C113.973 -0.00488281 113.122 0.340343 112.477 0.973255L99.6361 13.5596L86.7953 0.973255C86.1503 0.340343 85.2992 -0.00488281 84.4002 -0.00488281C84.0418 -0.00488281 83.6933 0.0526547 83.3392 0.162935C82.1247 0.560903 81.2356 1.59179 81.0208 2.85761L78.0089 20.6032L60.2444 17.9948C60.0819 17.9708 59.9193 17.9612 59.752 17.9612C58.6572 17.9612 57.6199 18.4935 56.9793 19.3757C56.224 20.4114 56.1092 21.7731 56.6781 22.9238L63.7487 37.2747C61.731 36.5315 59.6373 35.7547 57.5434 34.9827C53.2457 33.4005 49.7559 32.1107 46.9114 31.0654C46.0892 28.9173 44.6168 27.2487 42.7141 26.3425C47.5282 19.6873 48.2165 14.2165 44.5594 11.2101C43.0488 9.96832 41.3325 9.31618 39.5877 9.31618C38.9853 9.31618 38.3782 9.39289 37.7854 9.55115C34.9027 10.3039 32.4216 12.7637 30.3899 16.868L28.0713 16.4844C25.8436 15.3624 18.3429 11.8383 12.0087 11.8383C11.7266 11.8383 11.4494 11.843 11.1721 11.8575C5.82743 12.1307 4.32634 14.8254 3.90565 16.4077C3.74789 16.9975 3.65707 17.7646 3.78614 18.6661C2.40934 19.6442 1.86436 20.8861 1.64923 21.7012C1.47713 22.3485 1.38153 23.2163 1.57753 24.2472C0.70747 25.1102 0.325024 26.0453 0.157705 26.6734C-0.626306 29.6413 1.21421 32.4655 3.46584 34.4074C1.95519 36.613 1.76875 39.2213 2.98779 41.4941C4.38849 44.1024 7.39546 45.7231 10.8375 45.7231C11.1816 45.7231 11.5306 45.7087 11.8748 45.6751C14.7192 45.4019 17.339 44.5292 19.1317 43.7908C20.6041 45.1285 22.8366 46.6485 25.9296 47.4252C26.9909 47.6938 28.0713 47.828 29.1517 47.828C30.2321 47.828 31.2886 47.6938 32.3308 47.43C32.6176 47.6026 32.9092 47.7513 33.2152 47.8807C34.1904 48.2979 35.2278 48.5089 36.3034 48.5089C38.0818 48.5089 39.8984 47.9239 41.5477 46.8355C43.3356 47.4924 45.2574 48.1972 47.27 48.9356C47.0358 49.4055 46.9067 49.9329 46.9067 50.4795C46.9067 51.7597 47.6094 52.9248 48.7424 53.5242L64.6281 61.8862L56.6781 78.0206C56.114 79.1718 56.2288 80.5286 56.9793 81.5644C57.6199 82.4512 58.6572 82.9832 59.7568 82.9832C59.9145 82.9832 60.0723 82.974 60.2492 82.9501L64.093 82.3843L60.2301 86.8192C59.2357 84.5658 57.529 82.264 54.6512 80.4807C52.3756 79.0662 50.0045 78.3519 47.6046 78.3519C46.376 78.3519 45.1522 78.5434 43.9714 78.9269C40.3287 80.1015 37.2308 83.0937 35.4477 87.15C34.9553 87.917 34.5681 88.7657 34.3052 89.677C32.5603 95.6706 36.0978 103.462 42.5803 108.166C43.6702 111.191 47.2509 118.45 56.5012 118.45C56.769 118.45 57.0414 118.446 57.3187 118.431C57.3856 118.431 57.4526 118.422 57.5147 118.417C57.6629 118.436 57.8159 118.45 57.9641 118.45C58.3418 118.45 58.7146 118.388 59.0684 118.269C59.0971 118.259 59.207 118.22 59.3791 118.153C60.7607 117.837 61.8985 117.257 62.773 116.432C65.1491 114.912 66.8225 113.08 67.7406 110.98C68.4383 109.383 68.6058 107.657 68.2376 105.907C68.8353 105.121 69.2508 104.224 69.4613 103.246C69.5901 102.637 69.638 102.004 69.6098 101.343L79.6149 89.8544L81.011 98.0964C81.2263 99.3624 82.1155 100.393 83.3294 100.787C83.6736 100.897 84.0326 100.954 84.391 100.954C85.2894 100.954 86.1405 100.604 86.7861 99.9761L99.622 87.3899L112.462 99.9761C113.108 100.604 113.958 100.954 114.857 100.954C115.216 100.954 115.57 100.897 115.918 100.787C117.133 100.388 118.022 99.3575 118.237 98.0921L119.633 89.8495L129.639 101.338C129.61 101.995 129.658 102.633 129.787 103.241C129.998 104.22 130.409 105.121 131.011 105.903C130.642 107.653 130.81 109.379 131.508 110.975C132.426 113.076 134.099 114.907 136.475 116.427C137.35 117.257 138.488 117.832 139.869 118.148C140.041 118.216 140.146 118.249 140.18 118.264C140.538 118.383 140.911 118.446 141.284 118.446C141.432 118.446 141.585 118.436 141.734 118.412C141.801 118.417 141.863 118.422 141.93 118.426C142.202 118.441 142.47 118.446 142.747 118.446C151.997 118.446 155.578 111.181 156.668 108.161C163.15 103.462 166.688 95.6657 164.943 89.6721C164.675 88.7614 164.293 87.9128 163.8 87.1451C162.013 83.0888 158.92 80.1015 155.277 78.922C154.096 78.5434 152.877 78.347 151.649 78.347C149.249 78.347 146.877 79.0613 144.597 80.4758C141.719 82.2597 140.012 84.5609 139.018 86.8143L135.155 82.3794L139.018 82.9452C139.176 82.9642 139.334 82.9789 139.491 82.9789C140.586 82.9789 141.624 82.4512 142.264 81.5644C143.019 80.5286 143.134 79.1669 142.565 78.0163L134.615 61.8813L150.501 53.5146C151.634 52.9201 152.332 51.755 152.332 50.47C152.332 49.185 151.629 48.0246 150.496 47.4252L148.097 46.1642L152.394 44.4189C154.178 45.747 156.181 46.4663 158.174 46.4663C159.249 46.4663 160.291 46.2553 161.262 45.8382C161.564 45.7087 161.86 45.5601 162.142 45.3874C163.184 45.6512 164.245 45.7854 165.321 45.7854C166.397 45.7854 167.482 45.6512 168.543 45.3827C171.636 44.6059 173.869 43.086 175.341 41.7482C177.133 42.4866 179.753 43.364 182.598 43.6326C182.942 43.6661 183.291 43.6805 183.63 43.6805C187.072 43.6805 190.079 42.0599 191.48 39.4515C192.699 37.1788 192.513 34.5704 191.002 32.3648C193.254 30.4277 195.094 27.5987 194.31 24.6308L194.348 24.6356Z" fill="white"/>
<path d="M164.508 30.5382C163.5 28.0401 160.66 26.8318 158.169 27.8435L120.675 43.0622C118.185 44.0739 116.98 46.9172 117.989 49.4201C118.753 51.3188 120.58 52.4696 122.502 52.4696C123.109 52.4696 123.725 52.3545 124.327 52.11L161.821 36.8913C164.312 35.8796 165.517 33.0363 164.508 30.5334V30.5382Z" fill="#FD2222"/>
<path d="M122.501 53.1936C120.216 53.1936 118.18 51.8175 117.324 49.6934C116.167 46.8309 117.554 43.5609 120.407 42.4006L157.901 27.1819C159.283 26.6209 160.803 26.6352 162.175 27.2154C163.547 27.8004 164.614 28.884 165.173 30.2697C166.329 33.1322 164.943 36.4022 162.089 37.5626L124.596 52.7813C123.926 53.0546 123.219 53.1936 122.501 53.1936ZM160 28.208C159.474 28.208 158.943 28.3086 158.441 28.5148L120.948 43.7335C118.825 44.5965 117.797 47.0275 118.658 49.1516C119.294 50.7339 120.804 51.7552 122.506 51.7552C123.042 51.7552 123.563 51.6545 124.06 51.4484L161.554 36.2297C163.676 35.3666 164.704 32.9356 163.843 30.8115C163.428 29.7807 162.639 28.9751 161.616 28.5388C161.095 28.3182 160.545 28.208 159.995 28.208H160Z" fill="black"/>
<path d="M159.949 42.6696C162.985 41.3661 163.983 36.8795 162.178 32.6483C160.372 28.4171 156.447 26.0437 153.41 27.3472C150.374 28.6506 149.376 33.1373 151.182 37.3684C152.987 41.5996 156.912 43.973 159.949 42.6696Z" fill="white"/>
<path d="M158.207 43.7475C155.262 43.7475 152.107 41.3694 150.525 37.6581C148.565 33.0696 149.736 28.1501 153.131 26.6925C156.525 25.2349 160.88 27.7857 162.835 32.3743C164.795 36.9629 163.624 41.8824 160.229 43.34C159.584 43.6181 158.9 43.7523 158.207 43.7523V43.7475ZM151.844 37.0876C153.494 40.9474 157.003 43.1578 159.67 42.0119C162.338 40.8659 163.165 36.7951 161.52 32.9353C159.871 29.0755 156.367 26.8651 153.695 28.011C151.027 29.157 150.2 33.2278 151.844 37.0876Z" fill="black"/>
<path d="M178.783 16.959L159.058 24.1224L156.438 33.5298L165.359 38.8952L177.563 34.5703L182.134 28.8261L184.247 22.5066L178.783 16.959Z" fill="white"/>
<path d="M183.864 20.3874C187.54 18.0283 189.678 13.5883 183.162 13.2526C176.646 12.917 167.525 17.7502 167.525 17.7502L162.061 18.6612C159.221 11.3971 155.463 9.10038 152.126 11.8382C148.464 14.8445 155.607 23.6478 155.607 23.6478C153.876 27.522 155.946 32.3695 155.946 32.3695" fill="white"/>
<path d="M155.946 33.0889C155.669 33.0889 155.401 32.9259 155.286 32.6526C155.2 32.4512 153.25 27.7906 154.78 23.7631C153.326 21.8978 147.881 14.3892 151.672 11.2774C153.049 10.1458 154.56 9.75267 156.042 10.141C158.465 10.7739 160.698 13.4351 162.51 17.8511L167.295 17.0551C168.385 16.4893 176.861 12.2028 183.2 12.5336C186.647 12.711 187.703 14.0104 187.985 15.0653C188.535 17.151 186.508 19.5436 184.257 20.9917C183.922 21.2074 183.482 21.1067 183.267 20.7759C183.052 20.4402 183.152 19.9991 183.486 19.7834C185.533 18.4696 186.9 16.5613 186.604 15.4393C186.379 14.6001 185.15 14.0776 183.133 13.9721C176.88 13.6556 167.955 18.3353 167.864 18.3833C167.797 18.4216 167.72 18.4456 167.644 18.4552L162.18 19.3662C161.85 19.4238 161.52 19.2368 161.396 18.9203C159.742 14.6913 157.715 12.0685 155.683 11.5363C154.646 11.263 153.604 11.5507 152.585 12.3946C150.052 14.4755 154.43 21.054 156.166 23.1973C156.338 23.4082 156.376 23.6959 156.266 23.9453C154.689 27.479 156.592 32.0484 156.611 32.0916C156.763 32.456 156.596 32.8779 156.233 33.0362C156.142 33.0745 156.047 33.0937 155.951 33.0937L155.946 33.0889Z" fill="black"/>
<path d="M171.76 22.1905C171.76 22.1905 178.907 18.2108 185.423 18.5465C191.938 18.8821 189.802 23.3221 186.125 25.6811" fill="white"/>
<path d="M186.126 26.4002C185.891 26.4002 185.657 26.2852 185.523 26.0694C185.308 25.7338 185.408 25.2878 185.743 25.0769C187.789 23.7631 189.157 21.8548 188.86 20.7328C188.64 19.8937 187.407 19.3711 185.389 19.2656C179.155 18.9491 172.18 22.7802 172.114 22.8185C171.765 23.0103 171.33 22.8857 171.138 22.5404C170.948 22.1952 171.072 21.7541 171.416 21.5623C171.717 21.3945 178.831 17.4867 185.461 17.8272C188.908 18.0046 189.964 19.3039 190.247 20.3588C190.796 22.4445 188.769 24.8372 186.517 26.2852C186.398 26.3619 186.264 26.4002 186.13 26.4002H186.126Z" fill="black"/>
<path d="M173.089 27.2346C173.089 27.2346 180.394 23.183 186.91 23.5138C193.425 23.8447 191.289 28.2895 187.612 30.6485C183.936 33.0075 175.24 34.2637 175.24 34.2637" fill="white"/>
<path d="M175.235 34.9828C174.887 34.9828 174.576 34.7239 174.528 34.3643C174.471 33.9712 174.743 33.6067 175.135 33.5492C175.221 33.5348 183.721 32.2881 187.225 30.0394C189.272 28.7257 190.639 26.8173 190.342 25.6954C190.122 24.8562 188.889 24.3336 186.871 24.2281C180.637 23.9165 173.505 27.8194 173.433 27.8578C173.089 28.0496 172.649 27.9249 172.458 27.5749C172.267 27.2248 172.391 26.7885 172.74 26.5968C173.046 26.4289 180.308 22.4493 186.943 22.7897C190.39 22.9671 191.446 24.2665 191.729 25.3213C192.278 27.4071 190.252 29.7997 187.999 31.2477C184.237 33.6643 175.704 34.9157 175.341 34.9685C175.307 34.9733 175.274 34.9781 175.235 34.9781V34.9828Z" fill="black"/>
<path d="M155.502 31.0752C153.762 35.4911 159.675 44.0786 167.744 42.0456C172.353 40.8853 174.543 37.5626 174.543 37.5626C174.543 37.5626 178.482 39.7825 182.956 40.2141C187.431 40.6456 190.476 37.1166 187.985 34.0144C185.495 30.9121 175.771 32.2115 175.771 32.2115" fill="white"/>
<path d="M165.359 43.0622C162.309 43.0622 159.374 41.7053 157.18 39.1976C154.851 36.5365 153.909 33.1658 154.837 30.8115C154.98 30.4423 155.401 30.2601 155.769 30.4088C156.138 30.5526 156.319 30.9746 156.171 31.3437C155.449 33.1802 156.304 36.0235 158.255 38.2531C159.426 39.5956 162.687 42.5827 167.572 41.3505C171.832 40.2813 173.931 37.1982 173.95 37.1646C174.155 36.853 174.571 36.7523 174.896 36.9345C174.935 36.9537 178.764 39.0873 183.028 39.4949C185.499 39.7298 187.24 38.6558 187.866 37.4859C188.382 36.527 188.225 35.4529 187.426 34.4652C185.59 32.1781 178.458 32.5808 175.867 32.9261C175.475 32.9788 175.111 32.7007 175.063 32.3075C175.011 31.9143 175.288 31.5499 175.68 31.4972C176.718 31.3582 185.877 30.2362 188.545 33.5589C189.711 35.007 189.921 36.6899 189.128 38.1668C188.105 40.0751 185.595 41.1875 182.889 40.9286C179.256 40.5833 176.01 39.1161 174.748 38.4832C173.897 39.5189 171.669 41.8012 167.917 42.7458C167.061 42.9615 166.205 43.067 165.354 43.067L165.359 43.0622Z" fill="black"/>
<path d="M169.112 28.0926C169.112 28.0926 165.135 24.6548 160.722 26.8028L169.112 28.0926Z" fill="white"/>
<path d="M169.111 28.8118C168.945 28.8118 168.782 28.7542 168.643 28.6391C168.495 28.5097 164.958 25.5417 161.033 27.45C160.674 27.6227 160.248 27.474 160.077 27.1192C159.904 26.7596 160.053 26.3328 160.406 26.1603C165.187 23.8299 169.403 27.3973 169.58 27.5507C169.881 27.8097 169.915 28.2652 169.656 28.5672C169.513 28.7303 169.317 28.8165 169.111 28.8165V28.8118Z" fill="black"/>
<path d="M78.2862 46.318C78.2862 46.318 67.3717 42.2664 56.3815 38.21C33.6118 29.8095 33.564 29.8095 32.3832 29.8047H32.3545C29.6774 29.8047 27.5022 31.9719 27.4879 34.6618C27.4735 36.9729 29.0655 38.9148 31.2119 39.4326C33.846 40.2765 58.6379 49.4298 74.9111 55.4712C75.4702 55.6774 76.039 55.7781 76.5987 55.7781C78.5777 55.7781 80.4371 54.5602 81.1637 52.5896C82.0958 50.0627 80.8102 47.2529 78.2905 46.318H78.2862Z" fill="#FD2222"/>
<path d="M76.5938 56.4972C75.9341 56.4972 75.2793 56.3773 74.6577 56.1472C58.595 50.1825 33.7648 41.0148 31.016 40.1229C28.5014 39.5044 26.7565 37.2557 26.7708 34.6521C26.7852 31.5787 29.2902 29.0806 32.3545 29.0806C33.2597 29.0869 41.3515 31.9031 56.6301 37.529C67.611 41.5806 78.5201 45.6322 78.5348 45.637C79.9352 46.1548 81.0489 47.1905 81.6706 48.5522C82.2922 49.9091 82.3493 51.4339 81.8332 52.834C81.025 55.0204 78.922 56.4924 76.5938 56.4924V56.4972ZM32.3785 30.5238C30.079 30.5238 28.2194 32.3794 28.205 34.6617C28.1954 36.6036 29.5006 38.277 31.3793 38.7324C31.3984 38.7324 31.4128 38.7421 31.4271 38.7469C34.0803 39.5956 59.03 48.8111 75.1548 54.7998C75.6187 54.9725 76.1059 55.0587 76.5938 55.0587C78.3243 55.0587 79.8873 53.9656 80.485 52.3401C80.8673 51.2996 80.8243 50.168 80.3653 49.1564C79.9069 48.1446 79.0748 47.3775 78.0377 46.9891C78.0377 46.9891 67.1232 42.9375 56.133 38.8811C34.3289 30.8402 33.4397 30.5286 32.3785 30.519V30.5238Z" fill="black"/>
<path d="M43.3449 39.4114C45.1503 35.1802 44.1524 30.6936 41.1159 29.3901C38.0794 28.0867 34.1542 30.4601 32.3487 34.6913C30.5432 38.9224 31.5412 43.4091 34.5777 44.7125C37.6142 46.016 41.5394 43.6426 43.3449 39.4114Z" fill="white"/>
<path d="M36.3223 45.7807C35.6292 45.7807 34.9455 45.6464 34.3002 45.3683C30.906 43.9107 29.7396 38.9913 31.6948 34.4026C33.6548 29.814 38.0099 27.2632 41.3993 28.7208C44.7935 30.1784 45.9599 35.0978 44.0047 39.6865C42.4176 43.4024 39.2672 45.7807 36.3223 45.7807ZM39.3389 29.7421C36.9725 29.7421 34.3623 31.799 33.0094 34.9684C31.3602 38.8282 32.192 42.899 34.8595 44.0449C37.5271 45.1909 41.036 42.9805 42.6853 39.1207C44.3346 35.2609 43.5028 31.1901 40.8352 30.0442C40.3572 29.838 39.8552 29.7421 39.3389 29.7421Z" fill="black"/>
<path d="M15.7472 18.9922L35.4716 26.1556L38.0914 35.5678L29.1709 40.9284L16.971 36.6083L12.396 30.8593L10.283 24.5398L15.7472 18.9922Z" fill="white"/>
<path d="M10.6653 22.4205C6.98907 20.0615 4.85218 15.6215 11.3681 15.2859C17.8839 14.9502 27.0052 19.7834 27.0052 19.7834L32.4694 20.6944C35.309 13.4303 39.0665 11.1336 42.4034 13.8714C46.0652 16.8778 38.9231 25.681 38.9231 25.681C40.6537 29.5552 38.5837 34.4027 38.5837 34.4027" fill="white"/>
<path d="M38.5885 35.1266C38.4929 35.1266 38.3973 35.1074 38.3064 35.0691C37.9431 34.9157 37.771 34.4889 37.9287 34.1245C37.9479 34.0766 39.8505 29.5071 38.2729 25.9781C38.163 25.7288 38.2013 25.4411 38.3733 25.2301C40.233 22.9335 44.502 16.518 41.954 14.4275C40.9309 13.5884 39.8888 13.3007 38.8562 13.5692C36.8245 14.1014 34.7975 16.7242 33.1434 20.9532C33.0192 21.2696 32.6893 21.4567 32.3594 21.3991L26.8953 20.4881C26.8187 20.4737 26.7471 20.4497 26.6753 20.4162C26.5845 20.3682 17.664 15.6885 11.4063 16.005C9.39364 16.1105 8.16031 16.6283 7.93559 17.4722C7.63919 18.5942 9.00642 20.5025 11.0525 21.8163C11.3872 22.0321 11.4828 22.4732 11.2724 22.8088C11.0573 23.1444 10.6127 23.2404 10.2828 23.0245C8.03119 21.5765 5.99948 19.1839 6.55399 17.0982C6.83131 16.0386 7.89257 14.7439 11.3394 14.5665C17.6783 14.2405 26.1543 18.5222 27.2443 19.088L32.0296 19.8839C33.8414 15.4728 36.0739 12.8116 38.4977 12.1739C39.9844 11.7855 41.4902 12.1739 42.867 13.3103C46.6533 16.4221 41.2082 23.9308 39.7597 25.7959C41.2894 29.8236 39.339 34.4841 39.253 34.6855C39.1382 34.9588 38.8705 35.1218 38.5933 35.1218L38.5885 35.1266Z" fill="black"/>
<path d="M22.7745 24.2232C22.7745 24.2232 15.6276 20.2435 9.11172 20.5792C2.59583 20.9148 4.73274 25.3548 8.40895 27.7138" fill="white"/>
<path d="M8.40909 28.433C8.27519 28.433 8.14135 28.3947 8.02187 28.3179C5.7702 26.8699 3.73847 24.4773 4.29302 22.3916C4.57029 21.3319 5.63157 20.0373 9.07834 19.8599C15.7089 19.5147 22.8224 23.4273 23.1236 23.595C23.4678 23.7869 23.5968 24.2232 23.4008 24.5732C23.2096 24.9184 22.7746 25.0479 22.4256 24.8513C22.3539 24.813 15.3743 20.9771 9.15002 21.2984C7.13746 21.4038 5.90406 21.9217 5.67937 22.7656C5.38298 23.8876 6.75024 25.7959 8.79631 27.1097C9.13093 27.3254 9.22654 27.7665 9.01618 28.1022C8.87755 28.3179 8.64811 28.433 8.41387 28.433H8.40909Z" fill="black"/>
<path d="M21.4455 29.2673C21.4455 29.2673 14.1408 25.2157 7.62492 25.5466C1.10901 25.8822 3.24591 30.3222 6.92216 32.6812C10.5984 35.0402 19.2942 36.2965 19.2942 36.2965" fill="white"/>
<path d="M19.2942 37.0206C19.2608 37.0206 19.2273 37.0206 19.189 37.011C18.8257 36.9583 10.2924 35.7068 6.53015 33.2903C4.2785 31.8422 2.24678 29.4496 2.80132 27.3639C3.07859 26.3043 4.13987 25.0096 7.58662 24.8322C14.2173 24.487 21.4837 28.4715 21.7896 28.6393C22.1338 28.8311 22.2629 29.2674 22.0717 29.6175C21.8805 29.9674 21.4454 30.0921 21.0965 29.9003C21.0248 29.862 13.8874 25.9447 7.65836 26.2707C5.64574 26.3762 4.41236 26.894 4.18768 27.7379C3.89128 28.8599 5.25852 30.7682 7.30459 32.082C10.804 34.3307 19.3086 35.5774 19.3946 35.5918C19.7866 35.6493 20.0591 36.0137 20.0017 36.4069C19.9492 36.7665 19.6432 37.0254 19.2942 37.0254V37.0206Z" fill="black"/>
<path d="M39.0282 33.1079C40.7683 37.5239 34.8548 46.1114 26.7852 44.0784C22.1768 42.9181 19.9873 39.5953 19.9873 39.5953C19.9873 39.5953 16.0481 41.8152 11.5735 42.2468C7.09892 42.6783 4.05373 39.1493 6.54442 36.0471C9.03508 32.9449 18.7587 34.2443 18.7587 34.2443" fill="white"/>
<path d="M29.1708 45.0996C28.3198 45.0996 27.4642 44.9941 26.6084 44.7784C22.8605 43.8338 20.628 41.5515 19.777 40.5158C18.515 41.1488 15.269 42.616 11.6357 42.9611C8.9252 43.2201 6.42018 42.1077 5.39714 40.1994C4.60358 38.7225 4.8187 37.0396 5.98037 35.5916C8.65267 32.2687 17.8122 33.3908 18.8496 33.5298C19.2416 33.5825 19.5189 33.9421 19.4663 34.3402C19.4137 34.7333 19.0504 35.0066 18.6632 34.9587C16.0721 34.6134 8.93956 34.2155 7.1038 36.4978C6.30543 37.4903 6.1525 38.5643 6.66399 39.5185C7.29023 40.6885 9.03038 41.7673 11.5019 41.5275C15.7661 41.12 19.5954 38.9863 19.6336 38.9671C19.9587 38.7849 20.3746 38.8808 20.585 39.1973C20.6041 39.226 22.7027 42.3091 26.9622 43.3783C31.8527 44.6106 35.1035 41.6186 36.2795 40.2809C38.2299 38.0513 39.0904 35.208 38.3686 33.3716C38.2252 33.0024 38.402 32.5852 38.7701 32.4366C39.1382 32.2927 39.5542 32.4702 39.7024 32.8393C40.6298 35.1936 39.688 38.5643 37.3599 41.2255C35.1656 43.7331 32.2304 45.0901 29.1804 45.0901L29.1708 45.0996Z" fill="black"/>
<path d="M25.418 30.1258C25.418 30.1258 29.3954 26.688 33.8079 28.836L25.418 30.1258Z" fill="white"/>
<path d="M25.418 30.845C25.2172 30.845 25.0164 30.7586 24.873 30.5957C24.6148 30.2936 24.6483 29.8429 24.9495 29.5839C25.1264 29.4305 29.3381 25.8632 34.1234 28.1934C34.4819 28.366 34.6301 28.7976 34.4532 29.1524C34.2811 29.512 33.8508 29.6607 33.4971 29.4833C29.5675 27.5701 26.0347 30.5429 25.8865 30.6724C25.7526 30.7874 25.5853 30.845 25.418 30.845Z" fill="black"/>
<path d="M148.938 50.4701L130.088 60.3906L139.52 79.5365L118.452 76.4436L114.881 97.4977L99.6453 82.5667L84.41 97.4977L80.8385 76.4436L59.7662 79.5365L69.198 60.3906L50.3533 50.4701L69.198 40.5449L59.7662 21.3993L80.8385 24.4968L84.41 3.43799L99.6453 18.369L114.881 3.43799L118.452 24.4968L139.52 21.3993L130.088 40.5449L148.938 50.4701Z" fill="#FFE100"/>
<path d="M114.881 98.2168C114.695 98.2168 114.518 98.1444 114.379 98.0106L99.6454 83.5687L84.912 98.0106C84.7205 98.1971 84.4432 98.2646 84.1903 98.1781C83.9369 98.0965 83.7503 97.8811 83.7074 97.6123L80.2507 77.2486L59.8714 80.2408C59.6085 80.2795 59.3455 80.1691 59.1878 79.953C59.03 79.7376 59.0061 79.4498 59.1256 79.2099L68.2469 60.6973L50.0187 51.0981C49.7844 50.9735 49.6362 50.7289 49.6362 50.4604C49.6362 50.1919 49.7844 49.9474 50.0187 49.8227L68.2469 40.2235L59.1256 21.7108C59.0061 21.4711 59.03 21.1834 59.1878 20.9676C59.3455 20.7519 59.6085 20.6416 59.8714 20.6799L80.2507 23.6719L83.7025 3.3084C83.7454 3.04468 83.932 2.82892 84.1854 2.74261C84.4389 2.6611 84.7156 2.72343 84.9071 2.91043L99.6411 17.3524L114.374 2.91043C114.566 2.72343 114.843 2.6611 115.096 2.74261C115.35 2.82412 115.536 3.03989 115.579 3.3084L119.031 23.6719L139.41 20.6799C139.673 20.6416 139.936 20.7519 140.093 20.9676C140.252 21.1834 140.275 21.4711 140.156 21.7108L131.035 40.2235L149.263 49.8227C149.497 49.9474 149.645 50.1919 149.645 50.4604C149.645 50.7289 149.497 50.9735 149.263 51.0981L131.035 60.6973L140.156 79.2099C140.275 79.4498 140.252 79.7376 140.093 79.953C139.936 80.1691 139.673 80.2795 139.41 80.2408L119.031 77.2486L115.579 97.6123C115.536 97.8762 115.35 98.0922 115.096 98.1781C115.024 98.202 114.948 98.2119 114.876 98.2119L114.881 98.2168ZM99.6454 81.8474C99.827 81.8474 100.009 81.9143 100.147 82.0536L114.403 96.0303L117.745 76.3282C117.812 75.9446 118.17 75.6807 118.557 75.7384L138.277 78.6349L129.452 60.7213C129.28 60.3712 129.419 59.9493 129.763 59.7671L147.403 50.4796L129.763 41.1921C129.419 41.0099 129.28 40.5879 129.452 40.2379L138.277 22.3245L118.557 25.2206C118.17 25.2734 117.812 25.0145 117.745 24.6309L114.403 4.92904L100.147 18.9058C99.87 19.1792 99.4257 19.1792 99.1434 18.9058L84.8881 4.92904L81.5467 24.6309C81.4792 25.0145 81.1208 25.2782 80.7336 25.2206L61.014 22.3245L69.8387 40.2379C70.0111 40.5879 69.8724 41.0099 69.5282 41.1921L51.8879 50.4796L69.5282 59.7671C69.8724 59.9493 70.0111 60.3712 69.8387 60.7213L61.014 78.6349L80.7336 75.7384C81.1159 75.6807 81.4792 75.9446 81.5467 76.3282L84.8881 96.0303L99.1434 82.0536C99.2821 81.9192 99.4637 81.8474 99.6454 81.8474Z" fill="black"/>
<path d="M99.6453 80.3603C116.105 80.3603 129.448 66.9783 129.448 50.4698C129.448 33.9617 116.105 20.5791 99.6453 20.5791C83.1863 20.5791 69.8435 33.9617 69.8435 50.4698C69.8435 66.9783 83.1863 80.3603 99.6453 80.3603Z" fill="#FD2222"/>
<path d="M99.6461 81.0796C82.8183 81.0796 69.127 67.3477 69.127 50.4698C69.127 33.5921 82.8183 19.8599 99.6461 19.8599C116.473 19.8599 130.165 33.5921 130.165 50.4698C130.165 67.3477 116.473 81.0796 99.6461 81.0796ZM99.6461 21.2935C83.6069 21.2935 70.5611 34.3785 70.5611 50.465C70.5611 66.5518 83.6069 79.6368 99.6461 79.6368C115.685 79.6368 128.73 66.5518 128.73 50.465C128.73 34.3785 115.685 21.2935 99.6461 21.2935Z" fill="black"/>
<path d="M90.7823 50.7434C90.8492 50.7434 90.9118 50.7434 90.9787 50.7434C93.0964 50.7434 95.0804 51.29 96.787 52.2442C97.7093 50.403 98.2549 48.1111 98.2549 45.6274C98.2549 39.5572 94.9988 34.6377 90.9787 34.6377C89.5495 34.6377 88.2203 35.261 87.0967 36.335C89.4777 39.164 90.9787 43.2923 90.9787 47.8905C90.9787 48.8686 90.9118 49.8228 90.7823 50.7482V50.7434Z" fill="white"/>
<path d="M96.787 52.9586C96.6673 52.9586 96.5483 52.9298 96.4378 52.8675C94.784 51.9468 92.9007 51.4578 90.9787 51.4578H90.7922C90.5915 51.4578 90.381 51.3763 90.2423 51.2181C90.1036 51.0598 90.0417 50.8489 90.0705 50.6427C90.1945 49.7364 90.2614 48.811 90.2614 47.8856C90.2614 43.6375 88.9089 39.5955 86.5469 36.7953C86.3033 36.5028 86.3272 36.0713 86.5996 35.8124C87.8951 34.5705 89.4108 33.9185 90.9787 33.9185C95.3866 33.9185 98.9716 39.1687 98.9716 45.6273C98.9716 48.1494 98.4365 50.5468 97.4277 52.5654C97.3418 52.7428 97.184 52.8722 96.9975 52.9298C96.9306 52.949 96.8588 52.9634 96.787 52.9634V52.9586ZM91.5905 50.0338C93.283 50.1153 94.9417 50.5324 96.4526 51.2564C97.1644 49.583 97.5375 47.6507 97.5375 45.6225C97.5375 39.9599 94.5975 35.3521 90.9787 35.3521C89.9748 35.3521 88.9899 35.7213 88.0865 36.4213C90.3859 39.4421 91.6955 43.5752 91.6955 47.8856C91.6955 48.6049 91.6574 49.3241 91.5905 50.0338Z" fill="black"/>
<path d="M83.7024 45.6224C83.7024 48.1061 84.2473 50.398 85.1703 52.2393C86.8241 51.3186 88.7363 50.7768 90.7779 50.7433C90.9068 49.8179 90.9737 48.8637 90.9737 47.8856C90.9737 43.2874 89.4727 39.159 87.0917 36.3301C85.0555 38.2768 83.6975 41.7098 83.6975 45.6224H83.7024Z" fill="black"/>
<path d="M85.1702 52.9584C85.0984 52.9584 85.0266 52.9488 84.9597 52.9248C84.7732 52.8673 84.6155 52.733 84.5296 52.5604C83.5207 50.5418 82.9856 48.1396 82.9856 45.6223C82.9856 41.6427 84.3381 37.9747 86.5994 35.8122C86.743 35.6731 86.9388 35.6012 87.1352 35.6156C87.3309 35.6252 87.5175 35.7163 87.6414 35.8698C90.2182 38.9288 91.6959 43.3064 91.6959 47.8903C91.6959 48.8828 91.6284 49.8753 91.4903 50.8487C91.4424 51.1987 91.146 51.4624 90.792 51.4672C88.9326 51.496 87.1112 51.9851 85.5194 52.872C85.4089 52.9344 85.2899 52.9632 85.1702 52.9632V52.9584ZM87.0486 37.428C85.3948 39.3747 84.4197 42.3667 84.4197 45.6223C84.4197 47.6505 84.7922 49.5828 85.5047 51.2562C86.9486 50.5658 88.5263 50.1534 90.1421 50.0479C90.2182 49.3335 90.2568 48.6095 90.2568 47.8855C90.2568 43.9489 89.0952 40.1851 87.0443 37.428H87.0486Z" fill="black"/>
<path d="M82.3021 55.2214C82.1297 55.2214 81.9529 55.1591 81.8192 55.0344C81.5277 54.7659 81.508 54.3104 81.7762 54.0179C84.0995 51.4767 87.455 50.019 90.9836 50.019C93.1492 50.019 95.281 50.5705 97.1404 51.6109C97.4847 51.8027 97.6092 52.2439 97.4178 52.589C97.2269 52.9343 96.7869 53.0589 96.4427 52.8672C94.7932 51.9465 92.9049 51.4575 90.9836 51.4575C87.857 51.4575 84.8881 52.7473 82.8323 54.9913C82.6893 55.1447 82.4979 55.2262 82.3021 55.2262V55.2214Z" fill="black"/>
<path d="M107.6 50.7434C107.668 50.7434 107.73 50.7434 107.797 50.7434C109.914 50.7434 111.898 51.29 113.605 52.2442C114.527 50.403 115.073 48.1111 115.073 45.6274C115.073 39.5572 111.817 34.6377 107.797 34.6377C106.367 34.6377 105.038 35.261 103.915 36.335C106.296 39.164 107.797 43.2923 107.797 47.8905C107.797 48.8686 107.73 49.8228 107.6 50.7482V50.7434Z" fill="white"/>
<path d="M113.605 52.9586C113.485 52.9586 113.366 52.9298 113.256 52.8675C111.602 51.9468 109.719 51.4578 107.797 51.4578H107.61C107.39 51.4578 107.199 51.3763 107.06 51.2181C106.922 51.0598 106.86 50.8489 106.888 50.6427C107.012 49.7364 107.079 48.811 107.079 47.8856C107.079 43.6375 105.727 39.5955 103.365 36.7953C103.121 36.5028 103.145 36.0713 103.418 35.8124C104.713 34.5705 106.229 33.9185 107.797 33.9185C112.205 33.9185 115.79 39.1687 115.79 45.6273C115.79 48.1494 115.254 50.5468 114.246 52.5654C114.16 52.7428 114.002 52.8722 113.815 52.9298C113.748 52.949 113.677 52.9634 113.605 52.9634V52.9586ZM108.408 50.0338C110.101 50.1153 111.76 50.5324 113.27 51.2564C113.983 49.583 114.355 47.6507 114.355 45.6225C114.355 39.9599 111.415 35.3521 107.797 35.3521C106.793 35.3521 105.808 35.7213 104.904 36.4213C107.204 39.4421 108.513 43.5752 108.513 47.8856C108.513 48.6049 108.475 49.3241 108.408 50.0338Z" fill="black"/>
<path d="M100.525 45.6224C100.525 48.1061 101.07 50.398 101.993 52.2393C103.647 51.3186 105.559 50.7768 107.601 50.7433C107.73 49.8179 107.797 48.8637 107.797 47.8856C107.797 43.2874 106.296 39.159 103.915 36.3301C101.879 38.2768 100.521 41.7098 100.521 45.6224H100.525Z" fill="black"/>
<path d="M101.993 52.9584C101.921 52.9584 101.85 52.9488 101.783 52.9248C101.596 52.8673 101.438 52.733 101.353 52.5604C100.344 50.5418 99.8086 48.1444 99.8086 45.6223C99.8086 41.6427 101.161 37.9747 103.422 35.8122C103.566 35.6731 103.757 35.6012 103.958 35.6156C104.154 35.6252 104.34 35.7163 104.464 35.8698C107.041 38.9288 108.518 43.3064 108.518 47.8903C108.518 48.8828 108.451 49.8753 108.313 50.8487C108.265 51.1987 107.968 51.4624 107.615 51.4672C105.756 51.496 103.934 51.9851 102.342 52.872C102.232 52.9344 102.112 52.9632 101.993 52.9632V52.9584ZM103.867 37.428C102.213 39.3747 101.238 42.3667 101.238 45.6223C101.238 47.6505 101.61 49.5828 102.323 51.2562C103.767 50.5658 105.344 50.1534 106.96 50.0479C107.036 49.3335 107.075 48.6095 107.075 47.8855C107.075 43.9489 105.913 40.1851 103.862 37.428H103.867Z" fill="black"/>
<path d="M115.943 54.6748C115.766 54.6748 115.589 54.6077 115.45 54.4782C113.409 52.5315 110.694 51.4575 107.802 51.4575C107.405 51.4575 107.084 51.1362 107.084 50.7382C107.084 50.3403 107.405 50.019 107.802 50.019C111.062 50.019 114.131 51.2321 116.44 53.4329C116.727 53.7063 116.736 54.1617 116.464 54.4494C116.325 54.5981 116.134 54.6748 115.943 54.6748Z" fill="black"/>
<path d="M88.77 74.1179L65.2257 101.156C64.2647 102.258 62.9122 102.824 61.5591 102.824C60.4213 102.824 59.2835 102.427 58.3609 101.621C56.334 99.8468 56.1284 96.7638 57.8972 94.7307L81.4416 67.6929" fill="#FD2222"/>
<path d="M61.5591 103.543C60.211 103.543 58.9059 103.054 57.8876 102.162C55.5691 100.129 55.3301 96.5861 57.357 94.2609L80.9011 67.2231C81.1594 66.9254 81.6135 66.8917 81.9148 67.1556C82.2161 67.4194 82.2444 67.8699 81.9817 68.1724L58.4374 95.2102C56.9315 96.9408 57.1084 99.5734 58.8342 101.084C59.5895 101.745 60.56 102.11 61.564 102.11C62.7637 102.11 63.9015 101.592 64.6906 100.686L88.2343 73.6481C88.4926 73.3505 88.9467 73.3167 89.2481 73.5806C89.5444 73.8395 89.5776 74.2949 89.3149 74.5974L65.7707 101.635C64.7097 102.853 63.1749 103.553 61.564 103.553L61.5591 103.543Z" fill="black"/>
<path d="M55.4688 95.6318C55.4688 95.6318 57.7252 90.142 61.2628 93.2919C64.8006 96.4425 69.3803 103.371 63.0983 105.351" fill="white"/>
<path d="M63.0939 106.071C62.7876 106.071 62.5054 105.874 62.4102 105.567C62.2906 105.189 62.5011 104.786 62.8785 104.666C64.3604 104.196 65.1969 103.443 65.4264 102.36C65.9382 99.9573 63.4185 96.1741 60.7847 93.8293C60.0484 93.1727 59.3791 92.9284 58.729 93.0769C57.4335 93.3739 56.4104 95.2198 56.1284 95.9059C55.9754 96.2698 55.5595 96.4478 55.1914 96.2943C54.828 96.1409 54.6512 95.7236 54.8042 95.3542C54.8568 95.2247 56.1236 92.2043 58.4039 91.6716C59.5226 91.4127 60.6412 91.7723 61.7358 92.7505C63.8296 94.616 67.592 99.0846 66.8274 102.657C66.588 103.764 65.7897 105.251 63.3086 106.037C63.2368 106.061 63.1657 106.071 63.0939 106.071Z" fill="black"/>
<path d="M57.9785 95.5413C57.9785 95.5413 59.6852 87.6202 52.8633 83.3915C46.9498 79.723 41.0267 82.6477 38.4644 88.8236L57.9785 112.64V114.994C57.9785 114.994 63.0026 113.268 64.619 109.576C66.2348 105.883 62.3767 102.287 62.3767 102.287" fill="white"/>
<path d="M57.9786 115.717C57.8304 115.717 57.687 115.67 57.5627 115.583C57.3762 115.449 57.2615 115.228 57.2615 114.998V112.898L37.9099 89.2786C37.7425 89.0724 37.6995 88.7895 37.7999 88.5453C39.2532 85.0358 41.8108 82.4657 44.813 81.4968C47.5522 80.6149 50.4636 81.0556 53.2363 82.7769C60.4023 87.2216 58.6909 95.6079 58.6766 95.6895C58.5953 96.0779 58.2081 96.3222 57.8256 96.2412C57.4384 96.1596 57.1946 95.776 57.2758 95.3876C57.338 95.0856 58.7769 87.9028 52.4857 83.9999C50.0811 82.5087 47.5809 82.1153 45.2528 82.8683C42.7621 83.674 40.6061 85.7881 39.2915 88.7036L58.5284 112.183C58.6335 112.313 58.6909 112.471 58.6909 112.639V113.919C60.1537 113.248 62.8976 111.709 63.9593 109.292C65.3455 106.123 61.9176 102.848 61.8845 102.82C61.5973 102.546 61.5783 102.095 61.8507 101.803C62.1183 101.515 62.5724 101.496 62.8645 101.765C63.0363 101.927 67.076 105.758 65.2737 109.872C63.5524 113.804 58.428 115.607 58.2081 115.679C58.1316 115.703 58.0551 115.717 57.9738 115.717H57.9786Z" fill="black"/>
<path d="M56.4535 102.561C56.4535 102.561 54.8376 86.2681 44.3395 86.2681C33.8415 86.2681 35.8158 99.7698 45.506 105.979C45.506 105.979 47.5712 115.43 57.1705 114.979C66.7697 114.528 56.4535 102.561 56.4535 102.561Z" fill="white"/>
<path d="M56.5156 115.718C47.9728 115.718 45.3435 108.055 44.8846 106.435C38.928 102.493 35.4382 95.5123 36.9202 90.4251C37.8333 87.2844 40.4721 85.5532 44.3444 85.5532C54.7947 85.5532 56.8981 100.163 57.1466 102.263C58.2366 103.558 63.2228 109.777 61.688 113.368C61.0715 114.806 59.5656 115.593 57.2088 115.703C56.9746 115.713 56.7451 115.718 56.5156 115.718ZM44.3396 86.9916C41.1175 86.9916 39.0236 88.3202 38.2922 90.8276C37.1496 94.7495 39.7311 101.429 45.8885 105.375C46.051 105.476 46.161 105.639 46.204 105.826C46.2805 106.176 48.1736 114.274 56.5108 114.274C56.7164 114.274 56.922 114.274 57.1323 114.26C58.8916 114.179 59.9768 113.685 60.3592 112.792C61.4395 110.271 57.51 104.886 55.9037 103.025C55.8081 102.915 55.746 102.776 55.7316 102.628C55.7173 102.469 54.0585 86.9873 44.33 86.9873L44.3396 86.9916Z" fill="black"/>
<path d="M110.522 74.1179L134.065 101.156C135.026 102.258 136.379 102.824 137.733 102.824C138.87 102.824 140.008 102.427 140.93 101.621C142.957 99.8468 143.163 96.7638 141.394 94.7307L117.85 67.6929" fill="#FD2222"/>
<path d="M137.732 103.543C136.116 103.543 134.587 102.844 133.526 101.626L109.981 74.5878C109.723 74.2908 109.752 73.8348 110.048 73.5716C110.345 73.3126 110.799 73.3414 111.062 73.6385L134.606 100.676C135.395 101.583 136.533 102.101 137.732 102.101C138.736 102.101 139.702 101.736 140.462 101.075C141.299 100.341 141.796 99.3287 141.873 98.2217C141.949 97.114 141.585 96.0395 140.859 95.2006L117.315 68.1628C117.057 67.8658 117.085 67.4098 117.381 67.1466C117.678 66.8827 118.133 66.9158 118.395 67.2134L141.939 94.2513C142.919 95.378 143.407 96.8213 143.307 98.3125C143.206 99.8037 142.532 101.17 141.409 102.153C140.391 103.045 139.085 103.534 137.737 103.534L137.732 103.543Z" fill="black"/>
<path d="M143.823 95.6318C143.823 95.6318 141.566 90.142 138.029 93.2919C134.491 96.4425 129.912 103.371 136.193 105.351" fill="white"/>
<path d="M136.198 106.071C136.126 106.071 136.054 106.061 135.983 106.037C133.502 105.256 132.698 103.769 132.465 102.657C131.704 99.0846 135.462 94.616 137.555 92.7504C138.65 91.7772 139.769 91.4127 140.888 91.6716C143.168 92.1994 144.435 95.2247 144.487 95.3542C144.64 95.7236 144.463 96.1403 144.095 96.2937C143.732 96.4477 143.312 96.2698 143.158 95.9059C142.876 95.2198 141.854 93.3739 140.558 93.0769C139.908 92.9278 139.238 93.1726 138.502 93.8293C135.868 96.174 133.349 99.9573 133.86 102.359C134.089 103.443 134.927 104.201 136.409 104.666C136.786 104.786 136.996 105.188 136.877 105.567C136.781 105.874 136.499 106.071 136.193 106.071H136.198Z" fill="black"/>
<path d="M141.308 95.5413C141.308 95.5413 139.601 87.6202 146.423 83.3915C152.337 79.723 158.26 82.6477 160.822 88.8236L141.308 112.64V114.994C141.308 114.994 136.284 113.268 134.668 109.576C133.052 105.883 136.91 102.287 136.91 102.287" fill="white"/>
<path d="M141.308 115.717C141.232 115.717 141.15 115.703 141.074 115.679C140.859 115.602 135.729 113.804 134.008 109.872C132.211 105.763 136.246 101.927 136.418 101.765C136.709 101.496 137.159 101.511 137.431 101.803C137.699 102.095 137.685 102.551 137.393 102.82C137.36 102.853 133.927 106.123 135.318 109.292C136.38 111.714 139.123 113.248 140.586 113.919V112.639C140.586 112.471 140.644 112.313 140.749 112.183L159.986 88.7036C158.671 85.7881 156.52 83.6691 154.025 82.8683C151.701 82.1153 149.196 82.5087 146.792 83.9999C140.476 87.9169 141.982 95.3109 142.001 95.3876C142.083 95.776 141.839 96.1596 141.451 96.2412C141.064 96.3222 140.682 96.0779 140.601 95.6895C140.581 95.603 138.87 87.2216 146.041 82.7769C148.814 81.0556 151.73 80.6149 154.464 81.4968C157.466 82.4657 160.024 85.0358 161.477 88.5453C161.578 88.7895 161.54 89.0724 161.367 89.2786L142.015 112.898V114.998C142.015 115.228 141.906 115.449 141.715 115.583C141.59 115.67 141.447 115.717 141.299 115.717H141.308Z" fill="black"/>
<path d="M142.838 102.561C142.838 102.561 144.454 86.2681 154.952 86.2681C165.45 86.2681 163.476 99.7698 153.785 105.979C153.785 105.979 151.72 115.43 142.121 114.979C132.521 114.528 142.838 102.561 142.838 102.561Z" fill="white"/>
<path d="M142.776 115.718C142.551 115.718 142.322 115.713 142.083 115.703C139.726 115.593 138.22 114.806 137.603 113.368C136.069 109.782 141.055 103.563 142.145 102.263C142.394 100.163 144.497 85.5532 154.947 85.5532C158.819 85.5532 161.454 87.2844 162.367 90.4251C163.848 95.5123 160.359 102.498 154.402 106.435C153.943 108.055 151.314 115.718 142.771 115.718H142.776ZM154.952 86.9916C145.229 86.9916 143.565 102.479 143.55 102.633C143.536 102.781 143.474 102.92 143.379 103.03C141.772 104.891 137.847 110.28 138.923 112.797C139.305 113.69 140.391 114.179 142.15 114.265C151.003 114.687 153.001 106.19 153.083 105.826C153.126 105.639 153.236 105.476 153.398 105.375C159.561 101.429 162.137 94.7495 160.995 90.8276C160.263 88.3202 158.174 86.9916 154.947 86.9916H154.952Z" fill="black"/>
<path d="M108.934 62.8451C110.048 61.0374 110.698 58.8941 110.698 56.5879H88.2632C88.2632 58.8894 88.9131 61.0374 90.0268 62.8451C92.0347 61.0135 95.5154 59.7956 99.4784 59.7956C103.441 59.7956 106.921 61.0087 108.929 62.8451H108.934Z" fill="black"/>
<path d="M108.934 63.5645C108.758 63.5645 108.585 63.497 108.451 63.3774C106.491 61.5842 103.135 60.5149 99.4834 60.5149C95.8309 60.5149 92.4748 61.5842 90.5148 63.3774C90.357 63.521 90.1417 63.5885 89.9318 63.5596C89.7213 63.5308 89.5347 63.4062 89.42 63.2239C88.1964 61.2389 87.5508 58.947 87.5508 56.5928C87.5508 56.1948 87.8711 55.8735 88.2682 55.8735H110.703C111.1 55.8735 111.42 56.1948 111.42 56.5928C111.42 58.947 110.775 61.2437 109.551 63.2239C109.441 63.4062 109.25 63.5259 109.039 63.5596C109.006 63.5596 108.972 63.5645 108.939 63.5645H108.934ZM99.4834 59.0813C103.097 59.0813 106.477 60.069 108.734 61.7518C109.446 60.3807 109.862 58.8703 109.962 57.312H89.0088C89.1095 58.8703 89.5255 60.3807 90.2374 61.7518C92.4938 60.069 95.8738 59.0813 99.4877 59.0813H99.4834Z" fill="black"/>
<path d="M99.4827 68.2205C103.456 68.2205 106.945 66.077 108.934 62.8504C106.926 61.0186 103.446 59.8008 99.4827 59.8008C95.5197 59.8008 92.0396 61.0139 90.0317 62.8504C92.0255 66.077 95.5105 68.2205 99.4827 68.2205Z" fill="white"/>
<path d="M99.4826 68.9398C95.3907 68.9398 91.6284 66.8061 89.4198 63.2291C89.2382 62.9364 89.291 62.5528 89.5487 62.3178C91.7671 60.2946 95.4816 59.0815 99.4826 59.0815C103.484 59.0815 107.199 60.2898 109.417 62.3178C109.67 62.5528 109.728 62.9321 109.546 63.2291C107.337 66.8061 103.575 68.9398 99.4826 68.9398ZM90.9785 62.9842C92.9527 65.823 96.0885 67.4965 99.4826 67.4965C102.877 67.4965 106.008 65.8181 107.987 62.9842C105.984 61.4311 102.863 60.5152 99.4826 60.5152C96.1032 60.5152 92.9815 61.4311 90.9785 62.9842Z" fill="black"/>
<path d="M100.032 71.7829C96.8009 71.7829 94.4009 70.3972 94.2481 70.3064C93.9087 70.1045 93.794 69.6639 93.9946 69.3233C94.1953 68.9828 94.6353 68.8674 94.9747 69.0693C95.171 69.184 99.8937 71.8835 104.78 69.0693C105.124 68.8723 105.559 68.9877 105.76 69.3325C105.955 69.678 105.841 70.1143 105.497 70.3156C103.584 71.4184 101.696 71.7878 100.032 71.7878V71.7829Z" fill="black"/>
</g>
</g>
<defs>
<clipPath id="clip0_9306_1108">
<rect width="194.53" height="118.436" fill="white"/>
</clipPath>
</defs>
</svg>
