<svg width="170" height="132" viewBox="0 0 170 132" fill="none" xmlns="http://www.w3.org/2000/svg">
<g clip-path="url(#clip0_9306_1107)">
<mask id="mask0_9306_1107" style="mask-type:luminance" maskUnits="userSpaceOnUse" x="0" y="0" width="170" height="132">
<path d="M169.239 131.311L0.00866699 131.322L-1.50126e-06 0.0110168L169.23 -0.000154848L169.239 131.311Z" fill="white"/>
</mask>
<g mask="url(#mask0_9306_1107)">
<path d="M6.89633 78.7591C6.60447 77.7185 6.46618 76.6617 6.47635 75.6056C6.52214 71.2843 8.45701 67.8146 11.9585 65.7072C12.9412 63.0998 14.8556 59.7169 18.5926 56.4972C18.9099 55.6196 19.2733 54.0787 18.8329 53.1399C18.0496 51.4817 16.3189 45.9407 18.5763 42.3946C19.6359 40.7312 21.3713 39.8127 23.4702 39.8125C24.407 39.8125 25.3951 39.991 26.4906 40.3532C32.1886 42.2457 33.2743 48.9908 33.3617 53.2511C34.0322 53.1644 34.7695 53.0572 35.5271 52.9143C35.6653 51.9245 35.8443 50.9397 36.0644 49.9652C34.2623 48.1693 32.7264 46.1285 31.4925 43.8887C27.7754 37.1489 27.1145 29.271 29.6327 21.7145C32.1253 14.2344 37.4388 7.95319 44.6005 4.03422C49.4022 1.40625 54.7775 0.0129856 60.1374 0.0126323C70.8217 0.0119279 80.4977 5.51661 85.3821 14.3789C86.616 16.6187 87.522 19.0014 88.0748 21.481C96.1482 24.3632 102.748 29.8987 106.782 37.2202C110.735 44.3886 111.923 52.797 110.157 61.0117C110.209 61.1035 110.255 61.175 110.291 61.226C110.531 61.2158 111.022 61.1545 111.872 60.8483C115.333 59.6185 118.906 58.0468 122.51 56.1587C122.443 54.7046 122.556 52.9953 123.165 51.587C123.703 50.3522 124.403 49.3113 125.264 48.4847C125.719 46.357 127.122 43.7293 130.792 41.3718C131.063 41.132 131.934 40.2492 131.718 39.0196C131.662 38.7951 131.371 38.1319 131.155 37.6471C130.121 35.3002 128.703 32.0859 129.9 29.2592C130.315 28.2846 131.216 26.9784 133.172 26.2538C133.99 25.9476 134.846 25.7944 135.711 25.7944C137.866 25.7942 139.991 26.7635 141.69 28.5237C143.39 30.2839 144.558 32.6971 145.095 35.4523C148.08 34.0745 151.704 32.1762 154.663 29.9463C156.721 28.4002 158.968 27.5837 161.175 27.5836C163.585 27.5834 165.843 28.5782 167.374 30.3129C168.808 31.9404 169.468 34.0782 169.192 36.1803C168.465 41.7061 161.821 44.0433 157.623 44.9773C157.684 45.2682 157.751 45.5743 157.812 45.8957C157.981 46.6049 158.074 47.2172 158.119 47.6305C158.693 51.3143 158.739 54.6766 158.248 57.6257C158.187 58.1462 158.089 58.6768 157.962 59.2075L157.537 60.7994L157.44 60.83C155.827 65.4885 152.52 68.647 147.806 70.0096C145.558 70.6578 143.449 70.9894 141.55 70.9896C140.198 70.9896 138.919 70.8268 137.736 70.4947C136.476 71.0102 135.217 71.2708 133.978 71.2709C132.361 71.271 130.799 70.8168 129.381 69.9496C125.234 72.1029 121.093 73.9149 117.054 75.3483C114.694 76.1855 112.391 76.614 110.205 76.6141C108.019 76.6143 105.746 76.1453 103.78 75.2474C101.952 77.7782 99.8328 80.0844 97.4321 82.1413C98.4307 83.3146 99.2186 84.6003 99.7819 85.9829C101.677 90.6004 101.006 95.5544 97.7865 100.724C98.4931 104.045 97.4899 106.963 94.9818 108.974L95.2227 109.979C98.6271 112.239 100.424 117.05 99.4774 121.893C98.5866 126.444 95.0443 131.312 87.7702 131.317L87.7548 131.317C83.6083 131.317 80.1373 129.945 77.4287 127.241C72.9083 122.721 72.0013 115.746 71.8221 112.996C71.0798 112.103 70.4548 111.139 69.9482 110.129C67.3323 111.23 64.4399 111.808 61.4297 111.808C60.626 111.808 59.8171 111.767 59.0134 111.69C57.6466 112.66 56.0391 113.181 54.3447 113.196C55.0103 116.425 54.5756 121.054 49.8864 124.079C47.89 125.371 45.2843 126.08 42.5505 126.08C38.4448 126.08 34.6923 124.575 32.2502 121.958C30.1408 119.698 29.1577 116.759 29.3981 113.468C30.017 105.08 35.8118 100.176 38.2689 98.4566C40.4954 91.3544 46.3774 89.359 49.3108 89.3125L50.4473 89.2977L55.4491 93.7921C56.0584 93.8686 56.6727 94.0167 57.2819 94.2309C58.4594 94.6493 59.5089 95.3683 60.369 96.3429C60.6659 96.3738 61.014 96.4039 61.4031 96.4039C62.3655 96.4039 63.7324 96.2408 64.8074 95.4648C65.7647 94.7759 66.553 93.5667 67.1365 91.8982C58.8585 91.0976 51.215 87.6643 45.481 82.1496C45.1841 82.3736 44.877 82.6089 44.5698 82.8434C42.9676 85.1805 40.6998 86.2115 39.4764 86.6195C38.3553 87.4355 37.2495 88.227 36.1796 88.9819C19.9521 100.427 13.896 101.968 10.1128 101.969C9.35513 101.969 8.62821 101.898 7.88078 101.755C4.97807 101.194 2.62306 99.4996 1.24067 96.9949C-2.01561 91.0812 1.6904 85.2036 6.87587 78.7641L6.89633 78.7591ZM84.3015 91.2342C84.0094 91.0959 83.6618 90.9485 83.2573 90.7954C83.2061 91.1114 83.1549 91.4281 83.0987 91.7392C83.4828 91.5404 83.8873 91.3719 84.2966 91.2342L84.3015 91.2342Z" fill="white"/>
<path d="M55.1887 97.4245L49.3728 92.2005C49.3728 92.2005 42.7023 92.2979 40.7933 100.278C40.7933 100.278 32.9763 104.651 32.3114 113.677C31.6465 122.703 42.8939 125.166 48.3253 121.651C53.7566 118.14 50.9918 112.125 50.9918 112.125L55.1836 97.4245L55.1887 97.4245Z" fill="white"/>
<path d="M42.5762 123.948C44.8339 123.947 47.0403 123.396 48.7449 122.294C53.9715 118.916 52.292 113.385 51.8057 112.089L55.9258 97.6395C56.0076 97.3586 55.9206 97.0574 55.7004 96.8636L49.8845 91.6396C49.7412 91.5118 49.562 91.4402 49.3572 91.4402C49.2856 91.4402 42.2465 91.6401 40.1225 99.7886C38.6328 100.712 32.1622 105.193 31.5434 113.621C31.2723 117.32 32.8595 120.387 36.0182 122.249C37.938 123.381 40.2828 123.948 42.5711 123.953L42.5762 123.948ZM54.3183 97.6754L50.2545 111.916C50.2032 112.089 50.2186 112.278 50.2955 112.446C50.3979 112.666 52.707 117.906 47.9052 121.008C44.9669 122.906 40.0881 122.871 36.7963 120.927C34.9379 119.83 32.7774 117.687 33.069 113.728C33.6981 105.238 41.0901 100.982 41.1618 100.942C41.3461 100.834 41.4843 100.661 41.5303 100.451C43.0606 94.0479 47.8727 93.1193 49.0911 92.9865L54.308 97.6754L54.3183 97.6754Z" fill="black"/>
<path d="M43.4971 109.508C45.5294 108.993 48.6727 108.905 50.992 112.125L43.4971 109.508Z" fill="white"/>
<path d="M50.9971 112.895C51.1506 112.895 51.3093 112.85 51.4424 112.753C51.7854 112.508 51.8673 112.028 51.6164 111.686C49.6402 108.946 46.6862 107.911 43.3075 108.773C42.898 108.881 42.6472 109.294 42.7547 109.702C42.8623 110.11 43.2769 110.36 43.6916 110.253C45.6215 109.763 48.345 109.763 50.3724 112.579C50.521 112.789 50.7564 112.895 50.9971 112.895Z" fill="black"/>
<path d="M49.1835 94.1954C49.1835 94.1954 43.7673 94.7266 42.9947 101.395L49.1835 94.1954Z" fill="white"/>
<path d="M42.9998 102.166C43.3837 102.166 43.7165 101.88 43.7625 101.488C44.4481 95.5434 49.0709 94.9813 49.2654 94.961C49.6851 94.9153 49.9923 94.5424 49.9462 94.119C49.9052 93.7005 49.5263 93.3951 49.1117 93.4358C49.0503 93.4407 43.0709 94.1096 42.237 101.309C42.1909 101.727 42.493 102.11 42.9128 102.155C42.9435 102.155 42.9742 102.155 42.9998 102.155L42.9998 102.166Z" fill="black"/>
<path d="M41.5558 102.462C41.5558 102.462 31.6401 108.657 35.1679 118.198L41.5558 102.462Z" fill="white"/>
<path d="M35.1733 118.963C35.2603 118.963 35.3524 118.947 35.4394 118.917C35.8387 118.769 36.0435 118.33 35.895 117.932C32.6232 109.08 41.8734 103.171 41.9707 103.11C42.329 102.885 42.4365 102.41 42.2112 102.053C41.9859 101.696 41.515 101.589 41.1515 101.813C41.0491 101.88 30.7546 108.453 34.4514 118.463C34.564 118.774 34.8609 118.963 35.1733 118.963Z" fill="black"/>
<path d="M56.3354 96.9506C51.6972 95.3077 48.3751 99.9867 48.4061 104.62C48.4371 109.252 53.9508 111.905 57.4779 109.231C61.1995 106.414 60.6255 98.4656 56.3354 96.9457L56.3354 96.9506Z" fill="white"/>
<path d="M54.263 111.069C55.5838 111.069 56.8739 110.656 57.9437 109.849C60.3497 108.022 61.0048 104.512 60.5899 101.838C60.1545 99.0627 58.6596 96.971 56.5913 96.2366C54.651 95.5479 52.7774 95.7874 51.17 96.9307C49.0046 98.4666 47.6175 101.487 47.6381 104.635C47.6537 107.074 49.0667 109.273 51.3296 110.38C52.2767 110.844 53.2801 111.074 54.2681 111.074L54.263 111.069ZM54.4618 97.3792C54.9839 97.3792 55.5215 97.476 56.0744 97.6754C57.6051 98.216 58.7263 99.8584 59.0695 102.073C59.4843 104.746 58.6602 107.38 57.0119 108.63C55.6144 109.691 53.6947 109.834 52.0053 109.002C50.2442 108.14 49.1843 106.503 49.174 104.62C49.1584 101.997 50.3152 99.4102 52.0557 98.1757C52.8031 97.6448 53.6068 97.3793 54.4618 97.3792Z" fill="black"/>
<path d="M61.4449 108.915C58.5832 108.915 56.474 108.339 56.0389 108.211C56.0389 108.211 51.0986 107.426 52.2911 102.655C53.5553 97.599 58.7822 98.9968 58.7822 98.9968L58.7412 98.9862C58.7873 98.9968 63.231 100.185 66.5277 97.8074C70.0036 95.3018 70.9864 89.7094 71.1954 85.454C71.3286 82.8011 73.5966 80.7653 76.2481 80.8922C78.9102 81.0248 80.9579 83.2801 80.8254 85.9281C80.3597 95.2498 77.4067 101.898 72.0415 105.684C68.4072 108.251 64.4961 108.91 61.4398 108.91L61.4449 108.915Z" fill="#12B4FF"/>
<path d="M61.4449 109.68C65.5506 109.68 69.3696 108.516 72.4873 106.312C78.0513 102.383 81.1173 95.5401 81.5928 85.9684C81.6699 84.484 81.1579 83.055 80.1544 81.9533C79.1509 80.8509 77.7787 80.2029 76.2894 80.1265C73.2229 79.9792 70.5813 82.3465 70.4278 85.413C70.2233 89.4998 69.3021 94.852 66.0772 97.1793C63.108 99.317 58.9869 98.2514 58.946 98.2408C58.9203 98.2359 58.8999 98.231 58.8743 98.2254C58.3419 98.1032 56.0433 97.68 54.0775 98.8331C52.813 99.5726 51.9633 100.797 51.5437 102.461C51.1394 104.073 51.3186 105.466 52.0763 106.609C53.2642 108.4 55.4758 108.879 55.8648 108.951C56.3768 109.098 58.5576 109.675 61.4449 109.675L61.4449 109.68ZM76.0177 81.6524C76.0844 81.6524 76.1511 81.6524 76.2178 81.6524C77.2978 81.7035 78.2957 82.1775 79.0232 82.9737C79.75 83.7749 80.1188 84.805 80.0676 85.8871C79.6125 94.9637 76.7669 101.414 71.6066 105.057C68.7091 107.103 65.2894 108.139 61.45 108.139C58.6855 108.139 56.6429 107.578 56.264 107.466C56.2333 107.456 56.1975 107.45 56.1668 107.445C56.1514 107.445 54.2572 107.114 53.3612 105.752C52.8595 104.987 52.752 104.001 53.0437 102.828C53.3558 101.573 53.9701 100.675 54.866 100.144C56.5041 99.1798 58.5724 99.7155 58.5928 99.7204C58.6133 99.7253 58.6338 99.7309 58.6542 99.7358C59.3965 99.9141 63.6764 100.797 66.9885 98.4138C70.71 95.7297 71.7538 89.8979 71.974 85.4796C72.0813 83.321 73.8781 81.642 76.0226 81.6418L76.0177 81.6524Z" fill="black"/>
<path d="M110.214 73.7267C107.128 73.7269 104.834 72.7166 103.273 71.6452C96.955 67.3191 96.5499 58.1045 96.5246 57.0687L101.347 56.9511L106.164 56.813C106.236 58.9457 107.106 62.6193 108.74 63.7264C109.579 64.2978 110.962 64.2466 112.85 63.573C124.788 59.3323 134.187 52.4845 134.279 52.413L139.998 60.1527C139.568 60.4691 129.35 67.9139 116.087 72.6295C113.88 73.4154 111.924 73.7266 110.214 73.7267Z" fill="black"/>
<path d="M10.1334 99.0759C9.51394 99.0759 8.96109 99.0148 8.45424 98.9131C6.41672 98.52 4.76309 97.3418 3.80055 95.5969C0.861686 90.2604 5.64278 84.6116 14.3296 74.361C15.0514 73.5085 15.7988 72.6257 16.5615 71.7227L23.9491 77.9008C23.1813 78.8144 22.4288 79.6972 21.7019 80.5595C20.0229 82.5391 18.1698 84.728 16.5727 86.723C23.2532 83.0031 33.8651 75.7163 45.3523 66.3634L51.4499 73.8073C51.1223 74.0728 43.3618 80.3797 34.5211 86.6151C20.0084 96.8506 13.8193 99.0707 10.1283 99.0709L10.1334 99.0759Z" fill="black"/>
<path d="M41.9074 72.7515C50.683 88.6697 71.7548 93.9341 88.9651 84.5088C106.181 75.0841 113.019 54.5367 104.243 38.6132C100.142 31.1795 93.3641 26.0675 85.5463 23.6904C85.1262 20.9709 84.2357 18.2974 82.843 15.7668C75.9719 3.30756 59.4772 -0.808859 45.9985 6.56987C32.5198 13.9486 27.166 30.0363 34.037 42.5006C35.4296 45.0261 37.2164 47.2098 39.295 49.026C37.1147 56.8786 37.8063 65.3227 41.9074 72.7564L41.9074 72.7515Z" fill="#12B4FF"/>
<path d="M70.935 89.9437C77.1039 89.9433 83.4467 88.4072 89.3387 85.1823C106.897 75.5687 113.884 54.5163 104.919 38.251C100.951 31.052 94.326 25.69 86.2273 23.1088C85.756 20.4046 84.8444 17.8178 83.5135 15.4096C80.0885 9.19539 74.2515 4.78231 67.0847 2.99189C59.9379 1.20658 52.3153 2.23774 45.6297 5.90159C38.9441 9.56543 33.9787 15.418 31.6601 22.3879C29.3313 29.3781 29.9359 36.6538 33.3662 42.8681C34.6923 45.2763 36.3972 47.4344 38.4348 49.2813C36.2801 57.4757 37.2687 65.9249 41.2366 73.1238C47.1962 83.9302 58.7203 89.9445 70.935 89.9437ZM60.1224 3.66585C62.3391 3.6657 64.5507 3.93087 66.7162 4.47156C73.4638 6.15996 78.9566 10.3026 82.1724 16.1394C83.4934 18.5322 84.3741 21.1139 84.7886 23.8078C84.8349 24.0987 85.0393 24.3385 85.3209 24.4252C93.2411 26.8329 99.7221 32.0011 103.573 38.9858C112.133 54.5113 105.413 74.63 88.5964 83.8404C71.78 93.046 51.1384 87.9093 42.5778 72.3843C38.7276 65.4044 37.8261 57.1796 40.0371 49.2251C40.1139 48.9393 40.0268 48.6383 39.8016 48.4445C37.7435 46.6486 36.0284 44.5211 34.7125 42.1282C31.4921 36.2915 30.9285 29.4494 33.1192 22.8674C35.3149 16.2649 40.0243 10.7134 46.3721 7.23834C50.6875 4.8757 55.4126 3.66106 60.1224 3.66075L60.1224 3.66585Z" fill="black"/>
<path d="M131.935 49.265C131.935 49.265 127.834 48.153 125.838 52.74C123.841 57.327 128.742 74.2053 139.231 66.3111C149.72 58.4173 149.468 42.3146 149.468 42.3146L139.808 39.8457L131.935 49.265Z" fill="white"/>
<path d="M133.994 69.1582C135.606 69.1581 137.511 68.5661 139.692 66.923C150.37 58.8864 150.246 42.9776 150.236 42.3041C150.231 41.9571 149.995 41.6612 149.657 41.5745L139.997 39.1056C139.71 39.0342 139.408 39.1312 139.214 39.3557L131.633 48.4229C129.851 48.1577 126.749 48.7038 125.126 52.4337C123.713 55.6788 125.3 64.1229 129.77 67.6279C130.814 68.4492 132.227 69.1532 133.988 69.1531L133.994 69.1582ZM148.695 42.9113C148.608 45.8247 147.718 58.9681 138.77 65.7037C135.734 67.9897 133.026 68.2348 130.727 66.4287C126.954 63.4697 125.336 55.8113 126.539 53.0458C128.233 49.1476 131.597 49.9688 131.735 50.0046C132.022 50.0811 132.334 49.9841 132.523 49.7545L140.084 40.7077L148.69 42.9062L148.695 42.9113Z" fill="black"/>
<path d="M129.866 55.0358C129.866 55.0358 124.204 48.9441 132.507 43.7188C132.507 43.7188 135.154 41.7542 134.575 38.4735C134.242 36.5858 130.003 30.5143 134.191 28.9681C138.378 27.4218 143.108 32.5085 142.489 40.417" fill="white"/>
<path d="M129.866 55.801C130.056 55.801 130.241 55.7346 130.389 55.5968C130.701 55.3111 130.717 54.8264 130.429 54.5151C130.389 54.4743 128.433 52.2907 128.791 49.6171C129.052 47.6885 130.439 45.923 132.917 44.3667C132.932 44.3565 132.952 44.3462 132.968 44.3309C133.091 44.2391 135.989 42.0398 135.333 38.3407C135.236 37.7897 134.923 37.0805 134.524 36.1774C133.756 34.4376 132.707 32.0601 133.29 30.6875C133.485 30.2334 133.863 29.9017 134.457 29.6823C135.711 29.2179 137.078 29.473 138.307 30.3963C140.222 31.8401 142.126 35.2126 141.722 40.3557C141.686 40.7792 142.004 41.1465 142.428 41.1771C142.848 41.2026 143.222 40.8964 143.253 40.473C143.631 35.6564 142.09 31.3247 139.228 29.1718C137.569 27.9218 135.686 27.5954 133.919 28.2486C132.921 28.6161 132.235 29.2385 131.872 30.0907C131.027 32.0704 132.236 34.8 133.111 36.7949C133.439 37.5398 133.751 38.2388 133.812 38.6062C134.279 41.2542 132.303 42.9023 132.062 43.0912C129.19 44.9026 127.578 47.0354 127.261 49.4335C126.81 52.8419 129.191 55.4489 129.293 55.5561C129.447 55.7193 129.652 55.801 129.857 55.801L129.866 55.801Z" fill="black"/>
<path d="M140.493 40.519C140.739 40.4017 149.907 37.1611 156.424 32.2626C161.819 28.2008 166.847 31.818 166.325 35.8131C165.583 41.4562 154.029 42.6662 154.029 42.6662C154.029 42.6662 160.813 63.2635 147.012 67.239C132.647 71.3833 132.119 59.3265 132.119 59.3265" fill="white"/>
<path d="M141.534 68.867C143.25 68.8669 145.148 68.5657 147.222 67.9687C150.555 67.0092 153.033 65.0396 154.578 62.1261C158.048 55.5797 155.841 46.207 155.017 43.2988C157.879 42.8649 166.392 41.1449 167.083 35.9049C167.364 33.7772 166.284 31.6701 164.338 30.5375C161.897 29.1192 158.764 29.5327 155.958 31.6452C152.196 34.4772 146.703 37.3348 140.499 39.6924C140.304 39.769 140.186 39.8149 140.161 39.8252C139.777 40.0088 139.618 40.463 139.802 40.8456C139.981 41.2232 140.432 41.3813 140.811 41.2129C140.846 41.1976 140.929 41.167 141.046 41.121C147.384 38.7124 153.01 35.7833 156.885 32.8646C159.179 31.1399 161.676 30.7622 163.565 31.859C164.979 32.6753 165.762 34.1855 165.563 35.7009C165.02 39.8337 156.993 41.569 153.947 41.8906C153.717 41.9162 153.507 42.0437 153.384 42.2376C153.261 42.4315 153.226 42.6713 153.297 42.8907C153.333 43.003 156.984 54.3144 153.221 61.4068C151.88 63.9376 149.715 65.6521 146.797 66.4941C142.277 67.7955 138.755 67.5815 136.323 65.8468C133.123 63.5664 132.883 59.3213 132.883 59.2804C132.861 58.857 132.503 58.5305 132.078 58.5509C131.654 58.5714 131.326 58.9285 131.346 59.3469C131.357 59.551 131.608 64.3573 135.417 67.0816C137.07 68.2652 139.118 68.8621 141.534 68.8619L141.534 68.867Z" fill="black"/>
<path d="M155.294 49.2687C155.294 49.2687 155.309 49.2687 155.314 49.2687C155.74 49.2584 156.072 48.9064 156.062 48.4829C156.062 48.3094 155.924 44.1919 153.164 41.8298C151.648 40.5339 149.667 40.034 147.276 40.3403C144.41 40.7079 142.982 42.0754 142.291 43.1621C141.323 44.6827 141.103 46.7083 141.707 48.5808C141.836 48.9838 142.27 49.2032 142.675 49.0756C143.079 48.9481 143.3 48.5144 143.172 48.1112C142.813 46.9939 142.731 45.3255 143.586 43.9836C144.333 42.8049 145.644 42.0905 147.471 41.8608C149.417 41.6157 150.993 41.9932 152.166 42.9982C154.413 44.9216 154.526 48.4881 154.526 48.5238C154.536 48.9422 154.88 49.2687 155.294 49.2687Z" fill="black"/>
<path d="M155.422 54.3145C155.806 54.3145 156.139 54.0288 156.185 53.6359C156.206 53.4777 156.609 49.6969 154.188 47.2582C152.652 45.7123 150.379 45.0798 147.42 45.3861C144.568 45.6771 143.135 47.0191 142.439 48.0855C141.436 49.6264 141.211 51.698 141.846 53.6317C141.978 54.0347 142.409 54.2542 142.813 54.1215C143.218 53.9887 143.438 53.5602 143.305 53.1571C142.926 51.9989 142.838 50.2795 143.729 48.9171C144.481 47.7691 145.777 47.0904 147.584 46.9015C150.046 46.6462 151.905 47.1257 153.093 48.3195C154.997 50.2276 154.664 53.4217 154.664 53.4574C154.619 53.8758 154.921 54.2533 155.34 54.3043C155.371 54.3043 155.397 54.3043 155.427 54.3043L155.422 54.3145Z" fill="black"/>
<path d="M146.003 63.4382C147.688 63.4381 149.761 62.7849 151.123 60.4531C151.338 60.0856 151.215 59.6214 150.846 59.4071C150.478 59.1929 150.012 59.3154 149.796 59.6827C148.051 62.6625 145.071 61.8463 144.606 61.6984C142.85 60.6832 141.953 58.7189 142.317 56.6831C142.732 54.3411 144.677 52.6674 147.513 52.2029C150.436 51.7231 152.571 52.1057 153.682 53.2995C155.023 54.7434 154.711 57.0853 154.404 58.3609C154.307 58.7742 154.557 59.1875 154.972 59.2844C155.382 59.3813 155.797 59.1313 155.899 58.718C156.554 56.0086 156.165 53.7178 154.808 52.2586C153.308 50.6464 150.769 50.1211 147.262 50.6927C143.131 51.3665 141.217 54.0912 140.802 56.4178C140.326 59.0812 141.575 61.7547 143.909 63.0659C143.945 63.0863 143.987 63.1067 144.027 63.1169C144.529 63.2954 145.22 63.4383 146.003 63.4382Z" fill="black"/>
<path d="M62.4349 58.1629C58.4992 58.1632 55.3085 53.3937 55.3081 47.5099C55.3077 41.6262 58.4978 36.8562 62.4335 36.856C66.3691 36.8557 69.5599 41.6253 69.5603 47.509C69.5607 53.3928 66.3705 58.1627 62.4349 58.1629Z" fill="white"/>
<path d="M62.435 58.9284C66.7865 58.9281 70.3288 53.8052 70.3284 47.5091C70.328 41.2129 66.785 36.0905 62.4335 36.0908C58.0821 36.0911 54.5399 41.2139 54.5403 47.5101C54.5407 53.8062 58.0837 58.9287 62.435 58.9284ZM62.4336 37.6214C65.9404 37.6212 68.7922 42.06 68.7926 47.5092C68.7929 52.9584 65.9417 57.3975 62.4349 57.3978C58.9282 57.398 56.0764 52.9592 56.0761 47.51C56.0757 42.0608 58.9269 37.6217 62.4336 37.6214Z" fill="black"/>
<path d="M61.0262 45.1825L63.1915 42.371C62.3825 40.4986 61.1334 39.2945 59.7409 39.2946C57.2938 39.2948 55.3129 42.9736 55.3132 47.5095C55.3135 52.0454 57.2949 55.724 59.742 55.7238C62.189 55.7237 64.17 52.0448 64.1697 47.5089C64.1696 46.6977 64.1081 45.9171 63.9903 45.1823L61.0314 45.1825L61.0262 45.1825Z" fill="black"/>
<path d="M59.737 56.4896C62.6499 56.4894 64.9329 52.5452 64.9325 47.5093C64.9325 46.6827 64.8659 45.8562 64.743 45.0602C64.6815 44.6877 64.3641 44.4123 63.9853 44.4123L62.5826 44.4124L63.8008 42.8306C63.9698 42.6112 64.0056 42.3152 63.898 42.0601C62.9253 39.8101 61.4099 38.5244 59.7409 38.5246C56.8281 38.5248 54.5451 42.4689 54.5454 47.5048C54.5457 52.5407 56.8293 56.4846 59.7421 56.4844L59.737 56.4896ZM63.3096 45.9481C63.3659 46.4634 63.3967 46.9839 63.3968 47.5094C63.3971 51.9687 61.5031 54.9588 59.7369 54.9589C57.9707 54.959 56.0764 51.9641 56.0761 47.5099C56.0758 43.0556 57.9697 40.0605 59.7359 40.0603C60.6625 40.0603 61.5994 40.8766 62.2957 42.2694L60.412 44.7136C60.2328 44.9431 60.2022 45.2544 60.3352 45.5197C60.4633 45.7799 60.7295 45.9483 61.0212 45.9483L63.3045 45.9481L63.3096 45.9481Z" fill="black"/>
<path d="M59.0545 34.8205C59.0545 34.8205 61.4245 32.5703 64.0047 32.7844C67.4244 33.0699 65.4788 29.9015 62.4739 30.9579C59.4689 32.0142 59.0545 34.8205 59.0545 34.8205Z" fill="black"/>
<path d="M59.0546 35.5855C59.2491 35.5854 59.4385 35.514 59.5818 35.3762C59.6176 35.3405 61.7676 33.3607 63.9382 33.5493C65.5611 33.6819 66.1958 33.1359 66.4416 32.6512C66.7129 32.1155 66.5951 31.4828 66.1291 30.9573C65.4278 30.1614 63.9431 29.6308 62.218 30.2381C58.8136 31.4374 58.3122 34.5753 58.2968 34.713C58.2508 35.0345 58.4146 35.3559 58.7013 35.5039C58.8139 35.56 58.9317 35.5906 59.0546 35.5906L59.0546 35.5855ZM63.6515 32.0034C62.7863 32.0034 61.9621 32.2229 61.2352 32.524C61.6191 32.1923 62.1106 31.8913 62.7248 31.6769C63.7129 31.3299 64.3989 31.5901 64.6446 31.7227C64.8135 31.8094 64.9159 31.9013 64.9774 31.9727C64.8392 32.0186 64.5627 32.0646 64.0661 32.0238C63.9279 32.0136 63.7897 32.0085 63.6515 32.0085L63.6515 32.0034Z" fill="black"/>
<path d="M81.499 57.8045C77.5639 57.8048 74.3728 53.0353 74.3724 47.1515C74.372 41.2677 77.5625 36.4978 81.4976 36.4976C85.4334 36.4973 88.6246 41.2668 88.6249 47.1506C88.6253 53.0343 85.4349 57.8043 81.499 57.8045Z" fill="white"/>
<path d="M81.4991 58.5749C85.8506 58.5746 89.3928 53.4518 89.3924 47.1556C89.392 40.8594 85.8491 35.737 81.4975 35.7373C77.1467 35.7376 73.6045 40.8605 73.6049 47.1566C73.6053 53.4528 77.1482 58.5752 81.4991 58.5749ZM81.4976 37.2629C85.0044 37.2626 87.8564 41.7014 87.8567 47.1506C87.8571 52.5997 85.0057 57.0389 81.499 57.0391C77.9929 57.0393 75.1409 52.6006 75.1406 47.1514C75.1402 41.7022 77.9916 37.2631 81.4976 37.2629Z" fill="black"/>
<path d="M80.0902 44.8242L82.2556 42.0126C81.4465 40.1402 80.1979 38.9361 78.8055 38.9362C76.3583 38.9364 74.377 42.6152 74.3773 47.1511C74.3776 51.687 76.3594 55.3656 78.8066 55.3654C81.253 55.3653 83.2344 51.6864 83.2341 47.1505C83.234 46.3393 83.1722 45.5587 83.0549 44.824L80.0958 44.8242L80.0902 44.8242Z" fill="black"/>
<path d="M78.801 56.136C81.7144 56.1358 83.997 52.1917 83.9967 47.1558C83.9966 46.3292 83.9355 45.5078 83.8069 44.7067C83.7458 44.3343 83.4284 44.0587 83.0492 44.0588L81.6469 44.0589L82.8651 42.4771C83.0343 42.2577 83.0701 41.9617 82.9627 41.7066C81.9893 39.4566 80.4738 38.1709 78.8054 38.171C75.892 38.1712 73.6094 42.1154 73.6097 47.1514C73.6101 52.1873 75.8932 56.1312 78.8066 56.131L78.801 56.136ZM82.3738 45.5895C82.43 46.1048 82.4609 46.6252 82.4609 47.1508C82.4612 51.6101 80.5676 54.6001 78.8009 54.6003C77.0348 54.6004 75.1408 51.6055 75.1405 47.1513C75.1402 42.697 77.0339 39.7019 78.7999 39.7018C79.7268 39.7017 80.6636 40.518 81.3603 41.9159L79.4764 44.36C79.2974 44.5897 79.2665 44.9009 79.3943 45.1662C79.5221 45.4264 79.7883 45.5948 80.0853 45.5947L82.3689 45.5946L82.3738 45.5895Z" fill="black"/>
<path d="M76.0098 34.819C76.0098 34.819 78.3796 32.5688 80.9602 32.7829C84.3799 33.0684 82.4339 29.9 79.4292 30.9564C76.4239 32.0128 76.0098 34.819 76.0098 34.819Z" fill="black"/>
<path d="M76.0098 35.5845C76.2043 35.5845 76.3939 35.513 76.5372 35.3753C76.573 35.3395 78.7181 33.3597 80.8935 33.5483C82.5163 33.681 83.151 33.135 83.3968 32.6502C83.6685 32.1145 83.5505 31.4818 83.0842 30.9563C82.3833 30.1604 80.8981 29.6299 79.1736 30.2372C75.7687 31.4364 75.2725 34.5743 75.2521 34.7121C75.2058 35.0335 75.3701 35.3549 75.6566 35.5029C75.769 35.559 75.8869 35.5896 76.0098 35.5896L76.0098 35.5845ZM80.6118 32.0024C79.7467 32.0025 78.9223 32.222 78.1956 32.523C78.5797 32.1914 79.0712 31.8903 79.6856 31.6759C80.6736 31.3289 81.3596 31.5891 81.6054 31.7217C81.7739 31.8085 81.8765 31.9003 81.9376 31.9717C81.7999 32.0176 81.5233 32.0636 81.0268 32.0228C80.8885 32.0126 80.7501 32.0075 80.6118 32.0075L80.6118 32.0024Z" fill="black"/>
<path d="M72.5048 62.3665C70.4726 62.3666 68.7319 62.1321 67.3753 61.8515C68.0307 64.4944 69.9099 70.3722 73.6829 70.1831C77.4151 69.994 77.7728 64.3407 77.7368 61.7386C76.3395 62.0805 74.558 62.3715 72.5048 62.3716L72.5048 62.3665Z" fill="white"/>
<path d="M73.4983 70.9483C73.5755 70.9483 73.6471 70.9483 73.7237 70.9434C76.8414 70.7845 78.5869 67.4273 78.5099 61.7231C78.5099 61.4884 78.3969 61.269 78.2129 61.1261C78.0282 60.9833 77.788 60.9323 77.5577 60.9884C74.2764 61.7948 70.7436 61.7593 67.5339 61.0962C67.2779 61.0452 67.0065 61.1269 66.8274 61.3157C66.6431 61.5045 66.5715 61.7749 66.6329 62.03C67.4625 65.3872 69.4543 70.9486 73.4983 70.9483ZM76.9638 62.6875C76.8923 65.208 76.3603 69.2746 73.647 69.4125C73.6007 69.4125 73.5599 69.4125 73.5136 69.4125C70.8108 69.4127 69.1672 65.234 68.4401 62.8105C71.21 63.2389 74.1585 63.2439 76.9638 62.6824L76.9638 62.6875Z" fill="black"/>
<path d="M72.5048 63.1317C77.7215 63.1313 81.238 61.3505 81.3868 61.2739C81.7653 61.08 81.9085 60.6156 81.714 60.2432C81.5194 59.8708 81.0539 59.7228 80.6803 59.9167C80.634 59.9422 77.3169 61.6007 72.5047 61.601C67.6925 61.6013 64.5082 60.2188 64.4775 60.2035C64.0884 60.03 63.6379 60.2036 63.4639 60.5862C63.2899 60.9689 63.464 61.423 63.8479 61.5965C63.9861 61.6577 67.3087 63.132 72.5048 63.1317Z" fill="black"/>
<path d="M80.8568 95.3825C80.8568 95.3825 76.4997 95.9031 74.0224 97.6587C71.074 99.7452 69.7432 106.705 74.6989 111.848C74.6989 111.848 74.6543 128.44 87.7855 128.429C98.6738 128.418 98.9902 114.443 92.7138 111.908L91.0751 105.066L87.7832 94.9993C87.7832 94.9993 83.8874 94.7601 80.8617 95.3824L80.8568 95.3825Z" fill="white"/>
<path d="M87.77 129.194L87.7799 129.194C93.7598 129.194 96.6673 125.209 97.3939 121.49C98.2383 117.158 96.5177 112.892 93.3696 111.362L91.8229 104.887C91.8229 104.887 91.8124 104.847 91.8075 104.826L88.5149 94.7598C88.418 94.4585 88.1462 94.2542 87.8344 94.2339C87.6701 94.2241 83.8312 93.9996 80.7388 94.6276C80.2936 94.6838 76.1057 95.25 73.5821 97.0359C72.0057 98.1532 70.9154 100.337 70.6747 102.878C70.3575 106.195 71.5451 109.562 73.9363 112.159C73.9828 113.787 74.4334 121.226 78.9642 125.746C81.2578 128.037 84.2225 129.195 87.775 129.194L87.77 129.194ZM90.3329 105.27L91.9617 112.081C92.0179 112.321 92.1921 112.52 92.4224 112.612C95.0951 113.693 96.6156 117.459 95.8891 121.194C95.1008 125.24 92.0702 127.658 87.7798 127.659L87.7699 127.659C84.6417 127.659 82.0413 126.649 80.0498 124.664C75.5034 120.129 75.4622 111.929 75.4622 111.848C75.4621 111.649 75.3849 111.46 75.2466 111.317C73.0246 109.011 71.9136 105.99 72.1949 103.021C72.3893 100.949 73.2599 99.1334 74.4627 98.2808C76.7511 96.6635 80.9025 96.1478 80.9488 96.1429C80.9692 96.1429 80.9895 96.1373 81.0106 96.1324C83.2681 95.6681 86.0734 95.6981 87.2152 95.7394L90.3329 105.27Z" fill="black"/>
<path d="M77.4944 112.735C77.4948 118.491 81.5448 125.884 88.722 125.694L77.4944 112.735Z" fill="white"/>
<path d="M88.456 126.465C88.5529 126.465 88.6449 126.465 88.7425 126.465C89.1673 126.455 89.5001 126.102 89.4896 125.679C89.4797 125.255 89.1363 124.913 88.7017 124.934C86.2643 125.006 84.0271 124.098 82.2097 122.338C79.8087 120.011 78.2622 116.246 78.262 112.746C78.2619 112.322 77.9192 111.98 77.4944 111.98C77.0696 111.98 76.7262 112.322 76.7262 112.746C76.7265 116.639 78.457 120.832 81.1403 123.434C83.188 125.424 85.7167 126.47 88.456 126.47L88.456 126.465Z" fill="black"/>
<path d="M74.7291 100.01C74.7291 100.01 71.8371 106.582 77.259 109.914L74.7291 100.01Z" fill="white"/>
<path d="M77.2591 110.673C77.5147 110.673 77.766 110.546 77.9142 110.312C78.1396 109.949 78.0265 109.48 77.6634 109.261C72.8869 106.327 75.328 100.561 75.4355 100.316C75.6047 99.9285 75.4256 99.4798 75.0365 99.3113C74.6475 99.1428 74.1967 99.3163 74.0282 99.7039C72.9379 102.189 72.1244 107.654 76.8595 110.567C76.9873 110.643 77.1256 110.679 77.264 110.679L77.2591 110.673Z" fill="black"/>
<path d="M91.1063 107.908C97.1675 105.423 95.2937 100.004 92.4671 96.3459C89.288 92.2291 83.0988 92.8109 81.251 98.1274C79.3007 103.74 85.5008 110.204 91.1112 107.908L91.1063 107.908Z" fill="white"/>
<path d="M88.7153 109.143C89.6268 109.143 90.5333 108.969 91.3984 108.617C93.7324 107.657 95.1761 106.213 95.6878 104.315C96.3274 101.938 95.375 98.8607 93.0716 95.8765C91.356 93.657 88.6784 92.5399 86.0733 92.9635C83.4829 93.3822 81.4558 95.173 80.5185 97.8772C79.4851 100.857 80.4733 104.347 83.0435 106.765C84.6966 108.321 86.719 109.143 88.7153 109.143ZM90.8148 107.198C88.6029 108.101 86.089 107.525 84.0981 105.648C81.9682 103.643 81.1331 100.786 81.9728 98.3771C82.7198 96.2241 84.3067 94.8006 86.3241 94.474C88.3717 94.1417 90.486 95.0397 91.8582 96.8105C92.8105 98.04 94.9405 101.198 94.2083 103.917C93.8299 105.331 92.6882 106.433 90.8148 107.198Z" fill="black"/>
<path d="M17.3956 66.7729C17.3956 66.7729 9.46066 67.6459 9.37932 75.6361C9.2979 83.6264 20.8322 89.6611 25.9052 86.477C29.8214 84.0225 27.7068 78.8138 27.7068 78.8138" fill="white"/>
<path d="M22.5009 88.1001C23.9548 88.1 25.2705 87.7783 26.3097 87.1252C29.8367 84.9158 29.2272 80.5328 28.4132 78.528C28.2545 78.1348 27.809 77.9467 27.4148 78.1047C27.0207 78.2627 26.8313 78.7114 26.99 79.0997C27.0668 79.2879 28.8077 83.7524 25.4956 85.8297C23.4429 87.1156 19.9309 86.7331 16.5572 84.8507C13.4292 83.1109 10.1065 79.7742 10.1472 75.6411C10.2184 68.442 17.1858 67.5639 17.4826 67.5333C17.9024 67.4874 18.2044 67.1047 18.1583 66.6863C18.1122 66.2679 17.7282 65.9669 17.3136 66.0128C17.2266 66.0231 8.69782 67.0594 8.61139 75.6257C8.56044 80.4274 12.2979 84.2281 15.8047 86.187C18.0727 87.4523 20.4327 88.1002 22.5009 88.1001Z" fill="black"/>
<path d="M13.7968 70.6616C13.7968 70.6616 13.7963 64.1407 20.9938 58.2675C20.9938 58.2675 22.77 54.6856 21.4592 51.9101C20.1485 49.1396 18.6992 40.818 25.5745 43.0983C31.6156 45.103 30.3415 56.4097 30.3415 56.4097C30.3415 56.4097 39.8072 56.1438 43.7335 52.7147C47.6598 49.2858 52.0467 43.9486 55.6765 46.8821C58.9992 49.5657 59.2763 59.9079 43.5703 61.6896L37.843 81.2007L27.369 82.9161" fill="white"/>
<path d="M27.3741 83.6866C27.4151 83.6866 27.4561 83.6866 27.5021 83.6761L37.9762 81.9613C38.268 81.9156 38.5034 81.7064 38.5905 81.4206L44.1744 62.3938C54.3004 61.1022 57.1515 56.4029 57.9448 53.6833C58.774 50.8465 58.0468 47.8056 56.1679 46.2904C52.615 43.418 48.6631 47.1072 45.1821 50.3626C44.5064 50.9902 43.8716 51.5873 43.2369 52.1435C40.232 54.7662 33.5565 55.4401 31.1862 55.6036C31.355 52.7718 31.3953 44.2256 25.8254 42.3738C23.5421 41.6137 21.8271 41.8485 20.7317 43.0782C18.7506 45.2979 19.7799 50.1398 20.7732 52.2367C21.7768 54.3592 20.6661 57.1349 20.3794 57.788C13.1206 63.7888 13.0391 70.3809 13.0391 70.6618C13.0392 71.0852 13.3821 71.4264 13.807 71.4264C14.232 71.4264 14.5749 71.0851 14.5749 70.6617C14.5749 70.5999 14.6923 64.406 21.4904 58.8594C21.5774 58.788 21.6439 58.7013 21.69 58.6043C21.7719 58.4462 23.6146 54.6551 22.1606 51.5836C21.3208 49.803 20.481 45.66 21.8785 44.0935C22.5235 43.369 23.6855 43.277 25.334 43.828C30.7146 45.6134 29.5941 56.2211 29.5839 56.3282C29.5583 56.5476 29.63 56.767 29.7836 56.9302C29.932 57.0935 30.1522 57.1853 30.3723 57.1751C30.7716 57.1649 40.1604 56.8581 44.2506 53.2914C44.9058 52.7199 45.5815 52.0871 46.2368 51.48C50.0146 47.9489 52.8711 45.5915 55.2056 47.4792C56.3933 48.4384 57.2126 50.7343 56.4756 53.2549C55.7744 55.6529 53.1536 59.837 43.4985 60.9346C43.1914 60.9703 42.9355 61.1847 42.8484 61.4806L37.2594 80.5275L27.2665 82.1607C26.8467 82.2275 26.5652 82.6256 26.6318 83.0385C26.6932 83.4163 27.0209 83.6817 27.3895 83.6817L27.3741 83.6866Z" fill="black"/>
<path d="M38.0104 60.5472C38.0104 60.5472 44.3941 59.2406 44.8809 65.6031C45.3728 71.9657 41.4463 73.1035 41.4463 73.1035" fill="white"/>
<path d="M41.4466 73.8688C41.5183 73.8688 41.59 73.8583 41.6617 73.8379C41.8459 73.7873 46.1819 72.4451 45.649 65.5416C45.4902 63.4548 44.7274 61.8885 43.3809 60.8783C41.0924 59.159 37.985 59.7664 37.8571 59.797C37.4424 59.8838 37.1762 60.2869 37.2581 60.7002C37.3401 61.1134 37.7497 61.3787 38.1643 61.297C38.1643 61.297 40.7342 60.802 42.4646 62.108C43.4374 62.8427 43.9954 64.0366 44.1184 65.6591C44.5488 71.2662 41.3646 72.3282 41.2264 72.3689C40.8219 72.496 40.5968 72.9195 40.7145 73.3225C40.817 73.6547 41.119 73.8688 41.4466 73.8688Z" fill="black"/>
<path d="M37.0278 65.5628C37.0278 65.5628 43.4115 64.2562 43.8983 70.619C44.3902 76.9809 40.4637 78.1194 40.4637 78.1194" fill="white"/>
<path d="M40.4639 78.8847C40.5355 78.8847 40.6072 78.8742 40.6789 78.8538C40.8631 78.8025 45.1991 77.4603 44.6663 70.557C44.5074 68.4704 43.7445 66.9041 42.3981 65.894C40.1096 64.1746 37.0023 64.782 36.8743 64.8127C36.4596 64.8994 36.1934 65.3025 36.2754 65.7158C36.3624 66.129 36.772 66.3943 37.1815 66.3127C37.2071 66.3075 39.7565 65.8176 41.4818 67.1236C42.4546 67.8583 43.0126 69.0522 43.1356 70.6744C43.566 76.2821 40.3767 77.3434 40.2436 77.3841C39.8392 77.5119 39.614 77.9354 39.7317 78.3384C39.8342 78.6699 40.1362 78.8847 40.4639 78.8847Z" fill="black"/>
<path d="M32.3651 80.3649C32.3651 80.3649 31.8585 85.2986 38.0119 84.0328C38.0119 84.0328 44.37 82.8386 43.3201 75.1847C42.4545 68.8635 35.6561 70.2109 35.6561 70.2109" fill="white"/>
<path d="M36.1588 85.0017C36.7732 85.0016 37.4438 84.925 38.1656 84.7775C38.2219 84.767 45.2148 83.3586 44.0778 75.0777C43.8064 73.0827 42.9616 71.5674 41.569 70.5823C39.04 68.7868 35.6459 69.4299 35.5026 69.4606C35.0879 69.5423 34.8166 69.9453 34.8985 70.3588C34.9804 70.7717 35.3849 71.042 35.7996 70.9605C35.8252 70.9556 38.7022 70.4196 40.6835 71.833C41.7125 72.5675 42.3423 73.731 42.5574 75.287C43.4895 82.0983 38.099 83.2362 37.8686 83.2769C36.0564 83.6499 34.7458 83.4864 33.9727 82.7976C33.0051 81.9361 33.133 80.4509 33.133 80.4355C33.1739 80.0169 32.8617 79.6448 32.4419 79.6041C32.0221 79.5634 31.6484 79.8696 31.6023 80.2881C31.5921 80.3794 31.3926 82.5429 32.9336 83.931C33.7272 84.6451 34.8124 85.0074 36.1588 85.0073L36.1588 85.0017Z" fill="black"/>
<path d="M20.2582 80.5235C20.2582 80.5235 26.9651 88.9263 37.029 78.1195L20.2582 80.5235Z" fill="white"/>
<path d="M26.9647 84.4008C30.4561 84.4006 34.0293 82.4665 37.5921 78.64C37.8788 78.3289 37.8633 77.8437 37.5511 77.5579C37.2388 77.2728 36.7524 77.2876 36.4657 77.5994C33.1077 81.2012 29.8212 82.9667 26.6882 82.8651C23.0739 82.7376 20.8827 80.0693 20.8571 80.0441C20.5908 79.7176 20.1096 79.6614 19.7769 79.9269C19.4441 80.1923 19.393 80.6719 19.6541 80.9984C19.7616 81.1311 22.2805 84.2277 26.6013 84.391C26.719 84.391 26.8419 84.3959 26.9596 84.3959L26.9647 84.4008Z" fill="black"/>
<path d="M77.615 76.8769C77.7687 76.8867 81.3675 77.1674 85.335 78.3152C91.4934 80.1054 95.4561 83.0495 97.1101 87.08C99.0913 91.9117 97.4892 97.325 92.3453 103.178C91.3932 104.26 90.057 104.816 88.7158 104.816C87.5894 104.816 86.4525 104.424 85.5417 103.622C83.5397 101.873 83.34 98.8364 85.0905 96.8413C87.9061 93.637 88.5148 91.5402 88.1819 90.7236C87.3679 88.7238 81.5472 86.8261 76.8832 86.4592" fill="#12B4FF"/>
<path d="M88.7207 105.576C90.3337 105.576 91.8637 104.881 92.924 103.678C98.2729 97.5901 99.9213 91.9064 97.8221 86.7889C96.0755 82.5337 91.9442 79.4366 85.5499 77.5804C81.5009 76.4066 77.8298 76.1217 77.6767 76.1112C77.2519 76.0859 76.8833 76.397 76.8524 76.8205C76.8215 77.2439 77.1389 77.6111 77.5588 77.642C77.707 77.6518 81.2243 77.9219 85.1202 79.055C91.0434 80.7736 94.8425 83.5744 96.3988 87.376C98.2627 91.9163 96.7063 97.065 91.7716 102.678C91.0042 103.555 89.8877 104.055 88.7206 104.055C87.7376 104.055 86.791 103.699 86.0487 103.055C85.2341 102.346 84.7481 101.362 84.6764 100.28C84.6047 99.2033 84.9579 98.1626 85.6741 97.3515C88.3001 94.3663 89.4726 91.846 88.8988 90.4374C87.8545 87.8766 81.286 86.0401 76.9499 85.6984C76.5307 85.6675 76.1564 85.9793 76.1262 86.4027C76.0905 86.8262 76.4079 87.1934 76.8327 87.2243C81.4862 87.5856 86.8617 89.4987 87.4762 91.0091C87.6195 91.356 87.3787 93.0806 84.5175 96.3362C82.4848 98.6473 82.7209 102.173 85.0348 104.199C86.0538 105.091 87.3641 105.581 88.7158 105.581L88.7207 105.576Z" fill="black"/>
</g>
</g>
<defs>
<clipPath id="clip0_9306_1107">
<rect width="169.23" height="131.311" fill="white" transform="translate(0 0.0112305)"/>
</clipPath>
</defs>
</svg>
